<?xml version="1.0" encoding="UTF-8" standalone="no"?><!DOCTYPE svg PUBLIC "-//W3C//DTD SVG 1.1//EN" "http://www.w3.org/Graphics/SVG/1.1/DTD/svg11.dtd"><svg width="100%" height="100%" viewBox="0 0 428 194" version="1.1" xmlns="http://www.w3.org/2000/svg" xmlns:xlink="http://www.w3.org/1999/xlink" xml:space="preserve" xmlns:serif="http://www.serif.com/" style="fill-rule:evenodd;clip-rule:evenodd;stroke-miterlimit:2;"><g><path d="M66.293,26.729c-42.534,17.977 -65.96,43.01 -65.96,70.487c0,27.474 23.427,52.505 65.961,70.483c39.619,16.743 92.059,25.967 147.663,25.967c55.603,0 108.043,-9.224 147.661,-25.967c42.535,-17.978 65.961,-43.009 65.961,-70.483c0,-27.477 -23.426,-52.51 -65.961,-70.487c-39.618,-16.745 -92.058,-25.967 -147.661,-25.967c-55.604,0 -108.044,9.222 -147.664,25.967Z" style="fill:url(#_Linear1);"/><path d="M66.293,26.729c-42.534,17.977 -65.96,43.01 -65.96,70.487c0,27.474 23.427,52.505 65.961,70.483c39.619,16.743 92.059,25.967 147.663,25.967c55.603,0 108.043,-9.224 147.661,-25.967c42.535,-17.978 65.961,-43.009 65.961,-70.483c0,-27.477 -23.426,-52.51 -65.961,-70.487c-39.618,-16.745 -92.058,-25.967 -147.661,-25.967c-55.604,0 -108.044,9.222 -147.664,25.967Z" style="fill:none;stroke:#437b69;stroke-width:0.67px;"/><path d="M416.906,97.216c0,47.374 -90.864,85.776 -202.949,85.776c-112.087,0 -202.952,-38.402 -202.952,-85.776c0,-47.378 90.865,-85.782 202.952,-85.782c112.085,0 202.949,38.404 202.949,85.782Z" style="fill:url(#_Linear2);"/><path d="M416.906,97.216c0,47.374 -90.864,85.776 -202.949,85.776c-112.087,0 -202.952,-38.402 -202.952,-85.776c0,-47.378 90.865,-85.782 202.952,-85.782c112.085,0 202.949,38.404 202.949,85.782Z" style="fill:none;stroke:#437b69;stroke-width:0.67px;"/><clipPath id="_clip3"><path d="M416.953,96.446c0,47.375 -90.863,85.779 -202.95,85.779c-112.086,0 -202.951,-38.404 -202.951,-85.779c0,-47.377 93.531,-85.781 202.951,-85.781c112.087,0 202.95,38.405 202.95,85.781Z"/></clipPath><g clip-path="url(#_clip3)"><clipPath id="_clip4"><path d="M181.588,105.82c0,0 10.584,17.738 13.919,19.466c3.334,1.727 10.835,3.454 10.835,3.454l219.7,0l0,-23.317l-244.454,0.397Z"/></clipPath><g clip-path="url(#_clip4)"><rect x="181.588" y="105.423" width="235.365" height="23.317" style="fill:url(#_Linear5);fill-rule:nonzero;"/></g></g><clipPath id="_clip6"><path d="M416.953,96.446c0,47.375 -90.863,85.779 -202.95,85.779c-112.086,0 -202.951,-38.404 -202.951,-85.779c0,-47.377 93.531,-85.781 202.951,-85.781c112.087,0 202.95,38.405 202.95,85.781Z"/></clipPath><g clip-path="url(#_clip6)"><path d="M43.871,146.32c85.707,-32.518 180.652,-1.782 250.399,5.912c52.869,5.83 85.902,-6.395 97.049,-11.545l0.919,29.41c-11.147,5.152 -99.592,33.594 -152.463,27.762c-69.745,-7.694 -121.868,-1.577 -194.986,-22.129l-0.918,-29.41Z" style="fill:#a95b4f;fill-rule:nonzero;"/></g><path d="M294.282,124.315c0.99,0.146 2.035,0.218 3.134,0.218c1.133,0 2.135,-0.084 3.004,-0.254c0.87,-0.17 1.612,-0.41 2.229,-0.718c0.617,-0.309 1.214,-0.765 1.79,-1.367c0.576,-0.602 1.019,-1.372 1.33,-2.31c0.311,-0.938 0.466,-1.909 0.466,-2.913c0,-1.436 -0.3,-2.669 -0.899,-3.7c-0.598,-1.03 -1.501,-1.82 -2.708,-2.368c-1.206,-0.548 -2.863,-0.823 -4.969,-0.823c-1.108,0 -2.234,0.074 -3.377,0.219c-0.028,0.379 -0.051,1.051 -0.07,2.016l-0.055,1.679l0,4.622l0.042,3.59c0.009,0.549 0.037,1.251 0.083,2.109Zm-4.188,1.265l0,-0.555c0.517,-0.255 0.949,-0.486 1.297,-0.695c0.056,-0.525 0.102,-1.255 0.138,-2.189c0.064,-1.592 0.096,-2.696 0.096,-3.315l0,-4.727c0,-0.757 -0.02,-1.646 -0.062,-2.665c-0.036,-0.642 -0.1,-1.039 -0.19,-1.193c-0.064,-0.101 -0.16,-0.174 -0.287,-0.221c-0.299,-0.109 -0.921,-0.166 -1.867,-0.174l0,-0.734c1.316,0.042 2.478,0.062 3.488,0.062c0.774,0 1.831,-0.013 3.168,-0.039c1.338,-0.025 2.377,-0.039 3.116,-0.039c2.208,0 3.982,0.241 5.325,0.725c1.343,0.482 2.482,1.291 3.42,2.425c0.936,1.136 1.405,2.522 1.405,4.16c0,1.173 -0.221,2.274 -0.662,3.301c-0.441,1.028 -1.04,1.925 -1.796,2.694c-0.757,0.768 -1.567,1.377 -2.432,1.824c-0.865,0.448 -1.772,0.786 -2.722,1.014c-0.95,0.228 -2.253,0.341 -3.91,0.341c-0.55,0 -1.292,-0.012 -2.229,-0.039c-1.225,-0.025 -2.026,-0.039 -2.405,-0.039c-0.549,0 -1.513,0.027 -2.891,0.078Z" style="fill:#933530;fill-rule:nonzero;"/><path d="M294.282,124.315c0.99,0.146 2.035,0.218 3.134,0.218c1.133,0 2.135,-0.084 3.004,-0.254c0.87,-0.17 1.612,-0.41 2.229,-0.718c0.617,-0.309 1.214,-0.765 1.79,-1.367c0.576,-0.602 1.019,-1.372 1.33,-2.31c0.311,-0.938 0.466,-1.909 0.466,-2.913c0,-1.436 -0.3,-2.669 -0.899,-3.7c-0.598,-1.03 -1.501,-1.82 -2.708,-2.368c-1.206,-0.548 -2.863,-0.823 -4.969,-0.823c-1.108,0 -2.234,0.074 -3.377,0.219c-0.028,0.379 -0.051,1.051 -0.07,2.016l-0.055,1.679l0,4.622l0.042,3.59c0.009,0.549 0.037,1.251 0.083,2.109Zm-4.188,1.265l0,-0.555c0.517,-0.255 0.949,-0.486 1.297,-0.695c0.056,-0.525 0.102,-1.255 0.138,-2.189c0.064,-1.592 0.096,-2.696 0.096,-3.315l0,-4.727c0,-0.757 -0.02,-1.646 -0.062,-2.665c-0.036,-0.642 -0.1,-1.039 -0.19,-1.193c-0.064,-0.101 -0.16,-0.174 -0.287,-0.221c-0.299,-0.109 -0.921,-0.166 -1.867,-0.174l0,-0.734c1.316,0.042 2.478,0.062 3.488,0.062c0.774,0 1.831,-0.013 3.168,-0.039c1.338,-0.025 2.377,-0.039 3.116,-0.039c2.208,0 3.982,0.241 5.325,0.725c1.343,0.482 2.482,1.291 3.42,2.425c0.936,1.136 1.405,2.522 1.405,4.16c0,1.173 -0.221,2.274 -0.662,3.301c-0.441,1.028 -1.04,1.925 -1.796,2.694c-0.757,0.768 -1.567,1.377 -2.432,1.824c-0.865,0.448 -1.772,0.786 -2.722,1.014c-0.95,0.228 -2.253,0.341 -3.91,0.341c-0.55,0 -1.292,-0.012 -2.229,-0.039c-1.225,-0.025 -2.026,-0.039 -2.405,-0.039c-0.549,0 -1.513,0.027 -2.891,0.078Z" style="fill:none;stroke:#933530;stroke-width:0.77px;"/><path d="M310.892,109.846l0,-0.734c0.351,0.006 0.886,0.016 1.607,0.029l2.59,0.049c0.513,0 1.31,-0.013 2.39,-0.037c1.403,-0.038 2.218,-0.057 2.442,-0.057c1.719,0 2.972,0.131 3.76,0.395c0.787,0.261 1.397,0.688 1.828,1.279c0.433,0.591 0.649,1.234 0.649,1.929c0,0.649 -0.202,1.293 -0.607,1.935c-0.404,0.641 -0.991,1.174 -1.759,1.599c-0.768,0.424 -1.768,0.753 -2.999,0.984c0.225,0.271 0.756,0.873 1.593,1.807l3.403,3.843c0.967,1.079 1.532,1.68 1.693,1.804c0.08,0.055 0.161,0.094 0.242,0.116c0.134,0.039 0.43,0.059 0.887,0.059l0,0.734c-0.682,-0.051 -1.278,-0.078 -1.789,-0.078c-0.53,0 -1.179,0.027 -1.95,0.078c-0.585,-0.579 -1.566,-1.71 -2.943,-3.392c-0.765,-0.935 -1.44,-1.715 -2.025,-2.34c-0.945,-1.034 -1.845,-1.973 -2.699,-2.815l0.134,-0.347c0.467,0.023 0.823,0.035 1.065,0.035c1.636,0 2.876,-0.332 3.721,-0.997c0.844,-0.664 1.267,-1.541 1.267,-2.631c0,-0.95 -0.364,-1.706 -1.093,-2.267c-0.729,-0.559 -1.831,-0.839 -3.306,-0.839c-0.927,0 -1.835,0.12 -2.726,0.359c-0.035,0.418 -0.061,0.808 -0.079,1.171c-0.009,0.108 -0.04,1.232 -0.093,3.372l0,5.146c0,1.051 0.021,2.076 0.063,3.073c0.017,0.734 0.078,1.17 0.181,1.309c0.103,0.14 0.272,0.241 0.505,0.308c0.234,0.065 0.879,0.105 1.939,0.121l0,0.734c-1.28,-0.051 -2.455,-0.078 -3.527,-0.078c-0.865,0 -2.319,0.027 -4.364,0.078l0,-0.734c1.059,-0.016 1.705,-0.056 1.939,-0.122c0.233,-0.066 0.394,-0.156 0.484,-0.273c0.107,-0.154 0.175,-0.529 0.202,-1.125c0.01,-0.162 0.031,-1.26 0.063,-3.294l0,-5.372c0,-1.051 -0.016,-2.08 -0.047,-3.086c-0.028,-0.734 -0.093,-1.169 -0.196,-1.304c-0.103,-0.136 -0.269,-0.237 -0.499,-0.302c-0.228,-0.065 -0.878,-0.106 -1.946,-0.122Z" style="fill:#933530;fill-rule:nonzero;"/><path d="M310.892,109.846l0,-0.734c0.351,0.006 0.886,0.016 1.607,0.029l2.59,0.049c0.513,0 1.31,-0.013 2.39,-0.037c1.403,-0.038 2.218,-0.057 2.442,-0.057c1.719,0 2.972,0.131 3.76,0.395c0.787,0.261 1.397,0.688 1.828,1.279c0.433,0.591 0.649,1.234 0.649,1.929c0,0.649 -0.202,1.293 -0.607,1.935c-0.404,0.641 -0.991,1.174 -1.759,1.599c-0.768,0.424 -1.768,0.753 -2.999,0.984c0.225,0.271 0.756,0.873 1.593,1.807l3.403,3.843c0.967,1.079 1.532,1.68 1.693,1.804c0.08,0.055 0.161,0.094 0.242,0.116c0.134,0.039 0.43,0.059 0.887,0.059l0,0.734c-0.682,-0.051 -1.278,-0.078 -1.789,-0.078c-0.53,0 -1.179,0.027 -1.95,0.078c-0.585,-0.579 -1.566,-1.71 -2.943,-3.392c-0.765,-0.935 -1.44,-1.715 -2.025,-2.34c-0.945,-1.034 -1.845,-1.973 -2.699,-2.815l0.134,-0.347c0.467,0.023 0.823,0.035 1.065,0.035c1.636,0 2.876,-0.332 3.721,-0.997c0.844,-0.664 1.267,-1.541 1.267,-2.631c0,-0.95 -0.364,-1.706 -1.093,-2.267c-0.729,-0.559 -1.831,-0.839 -3.306,-0.839c-0.927,0 -1.835,0.12 -2.726,0.359c-0.035,0.418 -0.061,0.808 -0.079,1.171c-0.009,0.108 -0.04,1.232 -0.093,3.372l0,5.146c0,1.051 0.021,2.076 0.063,3.073c0.017,0.734 0.078,1.17 0.181,1.309c0.103,0.14 0.272,0.241 0.505,0.308c0.234,0.065 0.879,0.105 1.939,0.121l0,0.734c-1.28,-0.051 -2.455,-0.078 -3.527,-0.078c-0.865,0 -2.319,0.027 -4.364,0.078l0,-0.734c1.059,-0.016 1.705,-0.056 1.939,-0.122c0.233,-0.066 0.394,-0.156 0.484,-0.273c0.107,-0.154 0.175,-0.529 0.202,-1.125c0.01,-0.162 0.031,-1.26 0.063,-3.294l0,-5.372c0,-1.051 -0.016,-2.08 -0.047,-3.086c-0.028,-0.734 -0.093,-1.169 -0.196,-1.304c-0.103,-0.136 -0.269,-0.237 -0.499,-0.302c-0.228,-0.065 -0.878,-0.106 -1.946,-0.122Z" style="fill:none;stroke:#933530;stroke-width:0.77px;"/><path d="M329.166,109.846l0,-0.734c1.467,0.052 2.833,0.078 4.094,0.078c1.28,0 2.55,-0.026 3.812,-0.078l0,0.734c-1.06,0.016 -1.705,0.057 -1.939,0.122c-0.233,0.065 -0.39,0.156 -0.471,0.272c-0.117,0.155 -0.189,0.529 -0.215,1.124c-0.011,0.154 -0.031,1.251 -0.063,3.29l0,4.286c0,1.661 0.123,2.756 0.371,3.285c0.247,0.529 0.642,0.967 1.182,1.314c0.414,0.263 0.973,0.474 1.675,0.632c0.702,0.158 1.485,0.237 2.349,0.237c1.009,0 1.905,-0.106 2.689,-0.318c0.783,-0.213 1.37,-0.471 1.762,-0.776c0.391,-0.306 0.684,-0.648 0.878,-1.026c0.194,-0.378 0.334,-0.897 0.418,-1.557c0.086,-0.66 0.129,-1.497 0.129,-2.509l0,-3.568c0,-1.05 -0.021,-2.078 -0.062,-3.081c-0.019,-0.735 -0.079,-1.168 -0.182,-1.304c-0.103,-0.135 -0.271,-0.236 -0.505,-0.301c-0.233,-0.065 -0.88,-0.106 -1.938,-0.122l0,-0.734c1.483,0.052 2.566,0.078 3.25,0.078c0.621,0 1.74,-0.026 3.359,-0.078l0,0.734c-1.068,0.016 -1.717,0.057 -1.945,0.122c-0.23,0.065 -0.389,0.156 -0.479,0.273c-0.107,0.154 -0.174,0.529 -0.201,1.123c-0.01,0.155 -0.029,1.252 -0.056,3.292l0,3.881c0,1.91 -0.156,3.243 -0.466,3.999c-0.311,0.757 -0.881,1.425 -1.709,2.005c-0.622,0.433 -1.421,0.769 -2.399,1.008c-0.976,0.239 -2.059,0.359 -3.249,0.359c-1.386,0 -2.588,-0.14 -3.606,-0.422c-1.018,-0.283 -1.793,-0.654 -2.324,-1.113c-0.532,-0.46 -0.896,-0.929 -1.094,-1.408c-0.252,-0.634 -0.378,-1.696 -0.378,-3.187l0,-5.122c0,-1.051 -0.016,-2.079 -0.047,-3.083c-0.027,-0.734 -0.093,-1.168 -0.196,-1.304c-0.103,-0.135 -0.269,-0.236 -0.498,-0.301c-0.229,-0.065 -0.878,-0.106 -1.946,-0.122Z" style="fill:#933530;fill-rule:nonzero;"/><path d="M329.166,109.846l0,-0.734c1.467,0.052 2.833,0.078 4.094,0.078c1.28,0 2.55,-0.026 3.812,-0.078l0,0.734c-1.06,0.016 -1.705,0.057 -1.939,0.122c-0.233,0.065 -0.39,0.156 -0.471,0.272c-0.117,0.155 -0.189,0.529 -0.215,1.124c-0.011,0.154 -0.031,1.251 -0.063,3.29l0,4.286c0,1.661 0.123,2.756 0.371,3.285c0.247,0.529 0.642,0.967 1.182,1.314c0.414,0.263 0.973,0.474 1.675,0.632c0.702,0.158 1.485,0.237 2.349,0.237c1.009,0 1.905,-0.106 2.689,-0.318c0.783,-0.213 1.37,-0.471 1.762,-0.776c0.391,-0.306 0.684,-0.648 0.878,-1.026c0.194,-0.378 0.334,-0.897 0.418,-1.557c0.086,-0.66 0.129,-1.497 0.129,-2.509l0,-3.568c0,-1.05 -0.021,-2.078 -0.062,-3.081c-0.019,-0.735 -0.079,-1.168 -0.182,-1.304c-0.103,-0.135 -0.271,-0.236 -0.505,-0.301c-0.233,-0.065 -0.88,-0.106 -1.938,-0.122l0,-0.734c1.483,0.052 2.566,0.078 3.25,0.078c0.621,0 1.74,-0.026 3.359,-0.078l0,0.734c-1.068,0.016 -1.717,0.057 -1.945,0.122c-0.23,0.065 -0.389,0.156 -0.479,0.273c-0.107,0.154 -0.174,0.529 -0.201,1.123c-0.01,0.155 -0.029,1.252 -0.056,3.292l0,3.881c0,1.91 -0.156,3.243 -0.466,3.999c-0.311,0.757 -0.881,1.425 -1.709,2.005c-0.622,0.433 -1.421,0.769 -2.399,1.008c-0.976,0.239 -2.059,0.359 -3.249,0.359c-1.386,0 -2.588,-0.14 -3.606,-0.422c-1.018,-0.283 -1.793,-0.654 -2.324,-1.113c-0.532,-0.46 -0.896,-0.929 -1.094,-1.408c-0.252,-0.634 -0.378,-1.696 -0.378,-3.187l0,-5.122c0,-1.051 -0.016,-2.079 -0.047,-3.083c-0.027,-0.734 -0.093,-1.168 -0.196,-1.304c-0.103,-0.135 -0.269,-0.236 -0.498,-0.301c-0.229,-0.065 -0.878,-0.106 -1.946,-0.122Z" style="fill:none;stroke:#933530;stroke-width:0.77px;"/><path d="M369.508,124.674c-1.369,0.423 -2.491,0.708 -3.364,0.854c-1.54,0.254 -3,0.38 -4.378,0.38c-2.08,0 -3.932,-0.349 -5.553,-1.047c-1.621,-0.699 -2.873,-1.677 -3.755,-2.935c-0.883,-1.259 -1.325,-2.744 -1.325,-4.459c0,-1.505 0.318,-2.784 0.953,-3.838c0.635,-1.054 1.429,-1.92 2.379,-2.599c0.952,-0.679 1.9,-1.181 2.846,-1.505c1.451,-0.494 3.244,-0.742 5.381,-0.742c1,0.008 2.053,0.107 3.156,0.295c1.105,0.19 2.351,0.451 3.738,0.783c-0.134,0.393 -0.238,0.779 -0.31,1.157c-0.072,0.379 -0.166,1.154 -0.283,2.328l-0.828,0l-0.068,-1.318c-0.01,-0.201 -0.018,-0.363 -0.027,-0.486c-0.009,-0.124 -0.068,-0.281 -0.176,-0.474c-0.243,-0.278 -0.631,-0.528 -1.162,-0.751c-0.919,-0.301 -1.679,-0.502 -2.277,-0.602c-0.6,-0.099 -1.314,-0.15 -2.142,-0.15c-1.712,0 -3.194,0.312 -4.447,0.937c-1.252,0.625 -2.2,1.52 -2.845,2.685c-0.644,1.165 -0.966,2.437 -0.966,3.818c0,1.52 0.376,2.887 1.128,4.102c0.752,1.215 1.761,2.144 3.025,2.789c1.266,0.643 2.741,0.966 4.425,0.966c0.792,0 1.56,-0.065 2.303,-0.195c0.743,-0.13 1.371,-0.308 1.885,-0.538c0.083,-0.308 0.125,-0.804 0.125,-1.484l0,-1.288c0,-0.681 -0.041,-1.078 -0.122,-1.195c-0.081,-0.116 -0.299,-0.203 -0.655,-0.26c-0.356,-0.059 -1.172,-0.103 -2.451,-0.134l0,-0.703l4.213,0.078c0.819,0 1.656,-0.026 2.512,-0.078l0.081,0.562l-1.016,0.51c-0.104,0.825 -0.156,1.586 -0.156,2.279c0,0.696 0.052,1.448 0.156,2.258Z" style="fill:#933530;fill-rule:nonzero;"/><path d="M369.508,124.674c-1.369,0.423 -2.491,0.708 -3.364,0.854c-1.54,0.254 -3,0.38 -4.378,0.38c-2.08,0 -3.932,-0.349 -5.553,-1.047c-1.621,-0.699 -2.873,-1.677 -3.755,-2.935c-0.883,-1.259 -1.325,-2.744 -1.325,-4.459c0,-1.505 0.318,-2.784 0.953,-3.838c0.635,-1.054 1.429,-1.92 2.379,-2.599c0.952,-0.679 1.9,-1.181 2.846,-1.505c1.451,-0.494 3.244,-0.742 5.381,-0.742c1,0.008 2.053,0.107 3.156,0.295c1.105,0.19 2.351,0.451 3.738,0.783c-0.134,0.393 -0.238,0.779 -0.31,1.157c-0.072,0.379 -0.166,1.154 -0.283,2.328l-0.828,0l-0.068,-1.318c-0.01,-0.201 -0.018,-0.363 -0.027,-0.486c-0.009,-0.124 -0.068,-0.281 -0.176,-0.474c-0.243,-0.278 -0.631,-0.528 -1.162,-0.751c-0.919,-0.301 -1.679,-0.502 -2.277,-0.602c-0.6,-0.099 -1.314,-0.15 -2.142,-0.15c-1.712,0 -3.194,0.312 -4.447,0.937c-1.252,0.625 -2.2,1.52 -2.845,2.685c-0.644,1.165 -0.966,2.437 -0.966,3.818c0,1.52 0.376,2.887 1.128,4.102c0.752,1.215 1.761,2.144 3.025,2.789c1.266,0.643 2.741,0.966 4.425,0.966c0.792,0 1.56,-0.065 2.303,-0.195c0.743,-0.13 1.371,-0.308 1.885,-0.538c0.083,-0.308 0.125,-0.804 0.125,-1.484l0,-1.288c0,-0.681 -0.041,-1.078 -0.122,-1.195c-0.081,-0.116 -0.299,-0.203 -0.655,-0.26c-0.356,-0.059 -1.172,-0.103 -2.451,-0.134l0,-0.703l4.213,0.078c0.819,0 1.656,-0.026 2.512,-0.078l0.081,0.562l-1.016,0.51c-0.104,0.825 -0.156,1.586 -0.156,2.279c0,0.696 0.052,1.448 0.156,2.258Z" style="fill:none;stroke:#933530;stroke-width:0.77px;"/><path d="M372.133,125.003c0.141,-0.743 0.224,-1.946 0.25,-3.61l0.907,0c0.044,1.129 0.12,1.795 0.223,2c0.104,0.204 0.354,0.423 0.75,0.654c0.397,0.233 0.928,0.439 1.595,0.62c0.667,0.182 1.311,0.273 1.934,0.273c0.91,0 1.748,-0.18 2.513,-0.539c0.766,-0.36 1.324,-0.83 1.676,-1.414c0.352,-0.583 0.527,-1.207 0.527,-1.871c0,-0.509 -0.088,-0.948 -0.262,-1.318c-0.176,-0.369 -0.444,-0.668 -0.803,-0.895c-0.36,-0.227 -0.806,-0.387 -1.337,-0.479c-0.333,-0.047 -0.998,-0.124 -1.997,-0.232c-0.999,-0.108 -1.849,-0.228 -2.551,-0.359c-0.935,-0.247 -1.624,-0.536 -2.064,-0.868c-0.442,-0.332 -0.799,-0.767 -1.074,-1.308c-0.274,-0.54 -0.412,-1.122 -0.412,-1.747c0,-0.91 0.278,-1.769 0.831,-2.575c0.554,-0.805 1.373,-1.432 2.458,-1.881c1.085,-0.447 2.263,-0.671 3.533,-0.671c0.765,0 1.6,0.087 2.505,0.262c0.906,0.174 1.749,0.428 2.533,0.76c-0.125,0.485 -0.215,0.937 -0.269,1.357c-0.055,0.42 -0.095,1.039 -0.122,1.856l-0.906,0c-0.027,-1.186 -0.068,-1.832 -0.121,-1.94c-0.226,-0.277 -0.533,-0.527 -0.92,-0.75c-0.929,-0.446 -1.899,-0.67 -2.908,-0.67c-1.307,0 -2.351,0.341 -3.131,1.022c-0.78,0.681 -1.17,1.563 -1.17,2.647c0,0.657 0.139,1.164 0.419,1.523c0.278,0.359 0.777,0.646 1.497,0.863c0.495,0.147 1.304,0.283 2.428,0.41c1.124,0.128 2.135,0.265 3.034,0.412c0.844,0.216 1.469,0.473 1.874,0.77c0.404,0.298 0.737,0.687 0.998,1.171c0.261,0.482 0.39,1.048 0.39,1.697c0,1.537 -0.741,2.878 -2.225,4.021c-1.484,1.143 -3.403,1.714 -5.76,1.714c-1.78,0 -3.394,-0.301 -4.843,-0.905Z" style="fill:#933530;fill-rule:nonzero;"/><path d="M372.133,125.003c0.141,-0.743 0.224,-1.946 0.25,-3.61l0.907,0c0.044,1.129 0.12,1.795 0.223,2c0.104,0.204 0.354,0.423 0.75,0.654c0.397,0.233 0.928,0.439 1.595,0.62c0.667,0.182 1.311,0.273 1.934,0.273c0.91,0 1.748,-0.18 2.513,-0.539c0.766,-0.36 1.324,-0.83 1.676,-1.414c0.352,-0.583 0.527,-1.207 0.527,-1.871c0,-0.509 -0.088,-0.948 -0.262,-1.318c-0.176,-0.369 -0.444,-0.668 -0.803,-0.895c-0.36,-0.227 -0.806,-0.387 -1.337,-0.479c-0.333,-0.047 -0.998,-0.124 -1.997,-0.232c-0.999,-0.108 -1.849,-0.228 -2.551,-0.359c-0.935,-0.247 -1.624,-0.536 -2.064,-0.868c-0.442,-0.332 -0.799,-0.767 -1.074,-1.308c-0.274,-0.54 -0.412,-1.122 -0.412,-1.747c0,-0.91 0.278,-1.769 0.831,-2.575c0.554,-0.805 1.373,-1.432 2.458,-1.881c1.085,-0.447 2.263,-0.671 3.533,-0.671c0.765,0 1.6,0.087 2.505,0.262c0.906,0.174 1.749,0.428 2.533,0.76c-0.125,0.485 -0.215,0.937 -0.269,1.357c-0.055,0.42 -0.095,1.039 -0.122,1.856l-0.906,0c-0.027,-1.186 -0.068,-1.832 -0.121,-1.94c-0.226,-0.277 -0.533,-0.527 -0.92,-0.75c-0.929,-0.446 -1.899,-0.67 -2.908,-0.67c-1.307,0 -2.351,0.341 -3.131,1.022c-0.78,0.681 -1.17,1.563 -1.17,2.647c0,0.657 0.139,1.164 0.419,1.523c0.278,0.359 0.777,0.646 1.497,0.863c0.495,0.147 1.304,0.283 2.428,0.41c1.124,0.128 2.135,0.265 3.034,0.412c0.844,0.216 1.469,0.473 1.874,0.77c0.404,0.298 0.737,0.687 0.998,1.171c0.261,0.482 0.39,1.048 0.39,1.697c0,1.537 -0.741,2.878 -2.225,4.021c-1.484,1.143 -3.403,1.714 -5.76,1.714c-1.78,0 -3.394,-0.301 -4.843,-0.905Z" style="fill:none;stroke:#933530;stroke-width:0.77px;"/><path d="M160.373,75.163l0,-10.013c0,0 -0.004,-0.869 -0.004,-1.045c0,-1.614 0.079,-3.275 0.984,-3.662c0.892,-0.414 4.054,-0.77 6.74,0.029c2.052,0.645 4.806,2.494 5.78,5.566c0.619,1.856 0.764,4.76 -0.854,6.871c-1.798,2.505 -3.939,3.52 -7.403,3.52c-1.613,0 -2.524,-0.184 -5.243,-1.266Zm-71.102,-1.222c-4.853,5.179 -14.033,5.095 -21.409,5.029c0,0 -1.019,-0.007 -1.738,-0.012l0,-18.148c0,-7.003 0.065,-7.571 2.849,-9.074c1.553,-0.911 3.163,-1.004 6.472,-1.004l0.858,-0.016c1.436,-0.037 3.839,-0.101 5.802,0.326c4.765,0.816 7.992,4.057 9.624,9.641c0.968,3.435 0.847,9.826 -2.458,13.258Zm4.973,17.738c3.858,5.025 4.947,13.394 2.528,19.46c-2.071,5.779 -6.428,9.988 -11.962,11.572c-4.909,1.418 -10.869,1.137 -18.686,-0.857l0,-38.738c0.142,-0.001 0.331,-0.002 0.331,-0.002c5.725,-0.046 20.935,-0.169 27.789,8.565Zm135.344,-34.699l-0.484,0.055l-3.01,0.238l-1.105,-0.154c-0.729,-0.155 -1.727,-0.366 -3.739,-0.366c-1.46,0 -1.943,0.137 -2.41,0.27l-1.453,0.299l-0.063,0.597l0,1.985l1.303,-0.124c0.926,-0.095 2.194,-0.226 3.364,0.165c2.236,0.669 2.342,5.453 2.342,9.558l0,22.453c-2.284,-2.557 -25.353,-28.406 -25.353,-28.406c-4.878,-5.652 -6.939,-6.797 -12.238,-6.797c-0.127,0.004 -2.606,0.084 -4.253,0.631l-0.493,0.163l0,2.367l2.313,-0.462c1.004,-0.154 1.56,-0.054 1.871,0.332l0.042,0.053c0,0 2.506,2.149 2.93,2.513l0,25.083c0,8.56 -0.886,10.679 -1.416,11.179c-1.178,1.063 -1.701,1.006 -3.647,0.803l-0.714,-0.076c-3.127,-5.547 -9.591,-16.754 -12.661,-20.24c3.59,-0.832 6.792,-2.944 8.702,-5.963c1.21,-1.859 1.718,-3.975 1.718,-5.961c0,-1.93 -0.479,-3.738 -1.257,-5.072c-3.202,-5.711 -11.105,-5.463 -15.826,-5.317l-1.789,0.041c-1.071,0 -1.838,0.13 -2.58,0.256c-0.758,0.13 -1.541,0.264 -2.712,0.264l-2.249,-0.232c-1.096,-0.169 -2.339,-0.362 -4.161,-0.362c-0.549,0 -0.925,0.027 -1.211,0.077c-0.543,-0.047 -0.932,-0.014 -2.13,0.096l-0.561,0.051c-0.013,0.001 -0.929,0.101 -0.929,0.101l-2.659,0.195l-0.966,-0.155c-0.731,-0.175 -1.732,-0.416 -3.821,-0.365l-0.007,0c-1.718,0.059 -1.821,0.074 -2.638,0.27l-1.404,0.32l-0.007,0.576l0,2.031l0.83,-0.127c1.062,-0.164 2.631,-0.33 3.984,0.122c2.295,0.687 2.28,5.804 2.268,9.918l-0.002,0.951l0,10.584l0.008,1.414c0.048,5.711 0.098,11.617 -6.283,15.327c-3.666,2.077 -9.86,2.077 -13.518,-0.004c-6.757,-3.935 -6.695,-10.838 -6.65,-15.878l0.008,-1.158l0,-12.597l-0.011,-1.718c-0.03,-3.4 -0.052,-5.855 1.163,-6.614c1.557,-0.973 2.739,-0.94 4.887,-0.643l0.818,0.113l0,-2.547l-0.591,-0.107c-1.504,-0.272 -1.791,-0.245 -3.381,-0.094l-0.912,0.085c-0.013,0.001 -2.1,0.277 -2.1,0.277c-1.167,0.17 -2.176,0.318 -3.276,0.318c-0.714,0 -1.388,-0.151 -2.17,-0.326c-1.132,-0.253 -2.415,-0.539 -4.258,-0.493c-1.581,0.053 -1.691,0.07 -2.219,0.221l-0.64,0.159c-0.515,-1.404 -1.195,-2.674 -2.042,-3.663c-7.054,-8.686 -23.588,-7.127 -29.812,-6.54l-0.834,0.078l-0.462,0.06c-2.345,0.308 -4.37,0.574 -7.892,0.373c-1.302,-0.002 -2.454,-0.164 -3.79,-0.352c-1.748,-0.246 -3.729,-0.523 -6.532,-0.523c-1.574,0 -2.216,0.09 -2.55,0.499c-0.14,0.007 -1.021,0.057 -1.021,0.057l-0.202,0.106l-5.972,3.893l2.423,0c0.606,0 1.532,-0.207 2.705,-0.469c1.992,-0.446 4.722,-1.055 6.201,-0.606c3.617,1.072 3.744,3.832 3.686,9.971l-0.012,2.1l0,49.508l0.012,2.1c0.058,6.139 -0.069,8.898 -3.681,9.969c-1.549,0.47 -3.433,0.15 -4.947,-0.108l-2.83,-0.349l0.088,0.82l0,2.572l0.721,0c1.126,0 1.544,0.104 2.029,0.223c0.624,0.152 1.331,0.324 3.35,0.324c2.797,0 4.738,-0.242 6.451,-0.457c1.312,-0.164 2.445,-0.307 3.711,-0.307c3.711,0 7.246,0.635 7.281,0.641c10.994,0.752 25.944,1.769 36.301,-10.27c3.675,-4.132 4.982,-9.048 4.982,-13.404c0,-2.41 -0.399,-4.648 -1.02,-6.488c-3.608,-9.773 -12.118,-13.618 -21.144,-16.028c6.237,-2.397 12.206,-5.528 14.91,-12.037c0.67,-1.588 0.987,-3.491 0.987,-5.446c0,-1.25 -0.139,-2.519 -0.389,-3.747c1.163,-0.268 2.196,-0.276 3.061,0.013c2.087,0.626 2.159,2.474 2.124,6.597l-0.008,1.439l0,14.088l-0.002,0.783c-0.022,5.256 -0.055,13.198 7.816,17.729c5.512,3.259 15.575,3.513 20.698,0.517c8.267,-4.683 8.222,-12.448 8.187,-18.686l-0.004,-1.164l0,-9.315c0,-2.469 0,-9.98 1.401,-11.242c0.377,-0.34 0.721,-0.569 1.07,-0.73l0,0.281l0.721,-0.112l1.121,-0.16c0.344,-0.073 0.696,-0.143 1.061,-0.172c0.074,0.01 0.139,0.017 0.217,0.028l0.818,0.113l0,-0.056c0.094,0.021 0.185,0.03 0.281,0.062c2.087,0.626 2.159,2.474 2.124,6.595l-0.008,1.441l0,23.703l0.008,1.44c0.035,4.084 -0.037,5.918 -2.119,6.594c-0.84,0.279 -1.502,0.115 -2.204,-0.059l-2.063,-0.338l0.117,0.858l0,1.944c0,0 1.351,0.084 1.36,0.084c0.348,0.231 0.71,0.331 1.895,0.331c1.843,0 3.096,-0.268 4.201,-0.504c0.791,-0.168 1.473,-0.315 2.209,-0.315c0.791,0 1.559,0.147 2.372,0.303c0.942,0.18 1.916,0.365 3.068,0.365l4,0l0,-2.658l-2.09,0.079c-1.146,0.068 -1.62,0.097 -2.777,-0.674c-1.049,-0.657 -1.189,-2.515 -1.189,-5.127c0,-0.455 0.004,-0.932 0.008,-1.43l0.011,-1.713l0,-11.69c0.861,0.331 1.999,0.636 3.339,0.877c1.662,1.432 11.717,18.284 15.334,24.582c2.35,4.309 5.184,9.08 8.45,13.221c-1.25,1.574 -4.85,6.103 -4.85,6.103c-1.575,1.956 -2.513,2.743 -3.339,3.379c-0.714,0.52 -1.011,0.495 -2.262,0.385l-0.782,-0.066l0,2.104l2.381,0.021l0.446,-0.016l1.595,-0.121l0.699,-0.065l0.979,0.116l1.362,0.149l1.991,-0.132l1.02,-0.163l0.004,-0.614l0,-1.482l-1.026,0.15c-0.648,0.098 -1.038,0.156 -1.744,-0.047c-0.007,-0.002 -0.245,-0.09 -0.382,-0.14c0.141,-0.446 1.014,-1.624 1.416,-2.159c-0.008,0.011 2.913,-3.7 4.204,-5.341c5.316,6.059 11.665,10.127 18.875,8.042l0.681,-0.197l-0.599,-2.201l-0.696,0.191c-3.934,1.083 -9.348,-3.881 -14.432,-10.651l0.897,-1.124c1.504,-1.885 3.736,-4.685 4.591,-5.31c0.77,-0.592 1.76,-0.778 2.957,-0.559l0.85,0.156l0,-2.142l-0.604,-0.039l-2.271,-0.163l-1.618,0.151l-0.677,0.078l-0.673,-0.084l-1.995,-0.184l-2.028,0.194l-0.652,0.062l-0.007,0.656l0,1.424l1.376,-0.109c0.354,-0.045 0.633,-0.08 1.171,0.064c0.007,0.004 0.087,0.036 0.117,0.045c0.001,0.012 0.004,0.024 0.004,0.037c0,0.604 -1.434,2.426 -2.137,3.319l-0.856,1.105c0.002,-0.002 -0.043,0.054 -0.106,0.134c-2.238,-3.191 -4.37,-6.651 -6.231,-10.001c-0.008,-0.016 -0.086,-0.156 -0.211,-0.384c0.822,0.084 1.588,0.074 2.365,-0.046c1.768,-0.377 2.238,-0.373 3.092,-0.365l0.45,0.002l1.019,0.149c0.724,0.158 1.715,0.373 3.751,0.373c1.987,0 2.064,0 3.09,-0.305l0.832,-0.248l0.002,-0.537l0,-2.269l-0.948,0.316c-0.702,0.234 -2.273,0.41 -3.716,-0.074c-2.127,-0.692 -2.27,-5.11 -2.27,-9.01c0,-0.312 0.003,-1.859 0.003,-1.859l0,-21.83c2.324,2.573 32.277,35.741 32.277,35.741l2.828,0l0,-30.53c0,-8.627 0.887,-10.754 1.416,-11.254c1.317,-1.192 2.252,-1.064 3.803,-0.853l0.819,0.111l0,-2.48l-0.616,-0.184c-0.795,-0.238 -1.076,-0.283 -3.543,0.006Z" style="fill:url(#_Linear7);"/><path d="M278.5,60.169c1.2,-0.749 1.694,-0.726 2.887,-0.672l2.018,0.057l-0.02,-0.74l0,-1.84l-4,0c-1.142,0 -2.113,0.166 -3.051,0.326c-0.818,0.14 -1.589,0.272 -2.388,0.272c-0.737,0 -1.418,-0.147 -2.209,-0.315c-1.106,-0.236 -2.36,-0.504 -4.203,-0.504c-1.213,0 -1.604,0.121 -1.973,0.376c-0.033,0.023 -0.035,0.025 -0.035,0.025l-1.264,0.095l-0.054,0.67l0,2.024l0.72,-0.112l1.121,-0.16c0.737,-0.156 1.498,-0.318 2.377,-0.025c1.883,0.551 2.139,2.041 2.139,5.203c0,0.378 -0.004,0.779 -0.01,1.206l-0.012,1.627l0,8.747l-23.007,0l0,-7.927l-0.01,-1.718c-0.006,-0.51 -0.01,-1 -0.01,-1.465c0,-2.634 0.139,-4.505 1.172,-5.149c1.15,-0.751 1.656,-0.727 2.883,-0.673l2.021,0.057l-0.019,-0.74l0,-1.84l-4.074,0c-1.098,0 -2.047,0.164 -2.967,0.322c-0.819,0.142 -1.594,0.276 -2.399,0.276c-0.738,0 -1.435,-0.147 -2.244,-0.316c-1.125,-0.235 -2.4,-0.503 -4.242,-0.503c-1.18,0 -1.557,0.123 -1.916,0.383c-0.02,0.015 -0.023,0.018 -0.023,0.019c-0.002,0.001 -1.26,0.094 -1.26,0.094l-0.055,0.67l0,2.024l0.721,-0.112l1.121,-0.16c0.738,-0.156 1.502,-0.318 2.379,-0.025c2.086,0.626 2.158,2.474 2.123,6.599l-0.008,1.437l0,23.703l0.008,1.437c0.035,4.085 -0.037,5.921 -2.117,6.597c-0.84,0.279 -1.504,0.115 -2.205,-0.059l-2.063,-0.338l0.117,0.858l0,1.944c0,0 1.309,0.083 1.319,0.083c0.349,0.232 0.705,0.332 1.859,0.332c1.842,0 3.117,-0.266 4.242,-0.502c0.809,-0.17 1.506,-0.317 2.244,-0.317c0.799,0 1.569,0.151 2.385,0.307c0.922,0.178 1.875,0.361 2.981,0.361l4.074,0l0,-2.656l-2.094,0.077c-1.176,0.068 -1.664,0.099 -2.762,-0.666c-1.06,-0.665 -1.201,-2.521 -1.201,-5.135c0,-0.453 0.004,-0.929 0.01,-1.426l0.01,-1.717l0,-10.611l23.007,0l0,11.431l0.012,1.626c0.006,0.422 0.01,0.818 0.01,1.191c0,3.137 -0.254,4.621 -2.129,5.215c-0.846,0.281 -1.51,0.117 -2.211,-0.057l-2.06,-0.338l0.117,0.858l0,1.944c0,0 1.349,0.084 1.359,0.084c0.348,0.231 0.709,0.331 1.893,0.331c1.843,0 3.097,-0.268 4.203,-0.504c0.791,-0.168 1.472,-0.315 2.209,-0.315c0.793,0 1.56,0.149 2.375,0.303c0.941,0.18 1.914,0.365 3.064,0.365l4,0l0,-2.658l-2.09,0.079c-1.146,0.068 -1.623,0.097 -2.777,-0.674c-1.23,-0.772 -1.209,-3.199 -1.18,-6.56l0.01,-1.71l0,-22.063l-0.01,-1.71c-0.029,-3.404 -0.052,-5.863 1.162,-6.623Z" style="fill:url(#_Linear8);"/><path d="M300.11,79.187c0.568,-1.486 3.601,-9.408 4.553,-11.899c0.974,2.483 4.087,10.405 4.673,11.899l-9.226,0Zm26.334,20.068c-1.817,-0.315 -2.137,-0.59 -3.756,-4.635c-0.002,-0.006 -15.615,-37.867 -15.615,-37.867l-1.871,0l-12.774,33.404c-2.76,7.394 -4.232,8.889 -4.865,9.121c-1.191,0.463 -1.775,0.402 -3.027,0.123l-0.875,-0.195l0,2.611l0.584,0.111c1.361,0.26 1.504,0.256 2.939,0.111l1.065,-0.101c0.009,-0.002 1.664,-0.209 1.664,-0.209l1.25,-0.088l0.775,0.146c0.586,0.18 1.389,0.428 3.49,0.377c1.334,-0.047 1.489,-0.064 1.84,-0.209l1.43,-0.4l0.041,-0.557l0,-2.241l-0.979,0.377c-0.851,0.328 -2.541,0.572 -3.705,-0.1c-0.306,-0.188 -0.463,-0.586 -0.463,-1.213c0,-1.176 0.547,-3.162 1.674,-6.105c0,0 2.815,-7.379 3.549,-9.301l11.769,0c0.334,0.797 3.467,8.279 3.467,8.279c-0.009,-0.027 0.807,2.096 0.807,2.096c1.096,2.807 1.887,4.836 1.158,5.748c-0.576,0.783 -2.049,1.068 -3.599,0.713l-0.879,-0.201l0,2.792l1.349,0.199c0.953,0.147 1.197,0.17 3.215,0.047c0.031,-0.004 1.998,-0.305 1.998,-0.305c0.635,-0.125 1.092,-0.214 2.057,-0.214c0.707,0 1.156,0.103 1.726,0.236c0.825,0.189 1.76,0.404 3.657,0.359c1.457,-0.05 1.615,-0.066 2.123,-0.22l1.462,-0.385l0.024,-0.561l0,-2.154l-0.922,0.27c-0.303,0.088 -1.211,0.285 -1.783,0.141Z" style="fill:url(#_Linear9);"/><path d="M384.741,99.149c-0.778,0.354 -1.701,0.686 -2.823,0.154c-2.22,-0.834 -2.882,-4.581 -3.244,-8.142l-2.609,-25.787c-0.225,-2.571 0.021,-3.998 0.828,-4.76c0.783,-0.742 2.219,-0.951 4.391,-0.64l0.82,0.117l0,-2.738l-1.217,-0.143c-5.982,-0.703 -9.592,-1.127 -12.394,6.113c0.007,-0.017 -8.627,20.252 -11.098,26.053c-1.164,-2.805 -10.596,-25.547 -10.596,-25.547c0.008,0.02 -0.326,-0.873 -0.326,-0.873c-1.234,-3.328 -2.301,-6.203 -6.974,-6.203c-2.11,0 -3.049,0.185 -4.473,0.465l-2.127,0.4l-0.01,0.6l0,1.932l1.508,-0.188c1.609,-0.209 2.348,-0.267 2.98,0.502c1.129,1.299 0.885,4.036 0.67,6.451l-0.086,1.008c-0.002,0.016 -1.267,21.706 -1.267,21.706c-0.315,6.023 -1.379,8.159 -2.217,8.889c-1.473,1.153 -2.269,1.158 -4.346,0.873l-0.818,-0.113l0,2.57l0.994,0.137c1.195,0.168 1.262,0.162 2.957,0.004l0.561,-0.051c0.011,-0.002 1,-0.11 1,-0.11l2.588,-0.187l1.054,0.164c0.727,0.174 1.725,0.408 3.733,0.359c1.492,-0.05 1.65,-0.066 2.133,-0.218l1.451,-0.389l0.025,-0.559l0,-2.042l-0.846,0.14c-0.865,0.143 -2.05,0.34 -3.365,-0.117c-1.189,-0.433 -1.453,-2.931 -1.453,-5.714c0,-1.18 0.049,-2.41 0.092,-3.559l0.056,-1.58c0,0 0.709,-13.862 1.032,-20.197c2.056,4.83 13.759,32.31 13.759,32.31l1.846,-0.313c0,0 11.322,-27.169 13.205,-31.691c0.428,4.503 2.114,22.249 2.114,22.249c-0.002,-0.022 0.175,2.307 0.175,2.307c0.254,3.06 0.438,5.27 -0.662,5.958c-1.459,0.912 -1.828,0.873 -3.603,0.681l-1.207,-0.127l0.002,2.51l1.017,0.199c0.77,0.152 0.846,0.156 1.633,0.064l1.338,-0.138c0.012,-0.002 2.115,-0.278 2.115,-0.278c1.162,-0.169 2.164,-0.316 3.262,-0.316c0.707,0 1.367,0.15 2.129,0.322c1.127,0.256 2.402,0.543 4.297,0.498c0.007,0 0.933,-0.025 0.933,-0.025l0.918,-0.184l1.117,-0.457l0.045,-0.5l0,-2.312l-1.017,0.463Z" style="fill:url(#_Linear10);"/><path d="M138.363,98.399c-4.844,2.832 -14.683,2.609 -19.975,-0.519c-7.901,-4.549 -7.453,-12.746 -7.453,-17.891l0,-14.087c0,-4.77 0.372,-7.825 -2.609,-8.719c-1.565,-0.522 -3.204,-0.149 -4.174,0.148l0,-1.191c1.715,-0.373 0.821,-0.373 3.056,-0.447c3.056,-0.075 4.547,0.818 6.411,0.818c1.788,0 3.353,-0.371 5.44,-0.596c2.459,-0.222 2.459,-0.297 4.1,0l0,1.119c-2.162,-0.298 -3.578,-0.373 -5.367,0.747c-1.79,1.117 -1.491,4.396 -1.491,8.941l0,12.598c0,5.14 -0.67,13.191 7.007,17.663c3.8,2.16 10.285,2.236 14.235,0c7.304,-4.247 6.634,-11.329 6.634,-17.365l0,-10.584c0,-4.845 0.223,-10.66 -2.759,-11.552c-1.565,-0.522 -3.353,-0.299 -4.322,-0.151l0,-1.191c1.714,-0.373 1.193,-0.373 3.354,-0.447c3.131,-0.075 3.652,0.521 4.769,0.521c1.119,0 1.566,-0.074 3.653,-0.299c2.46,-0.222 2.088,-0.222 3.727,0l0,1.119c-2.162,-0.298 -3.28,-0.298 -4.771,1.043c-1.49,1.342 -1.639,7.155 -1.639,11.778l0,9.314c0,6.262 0.596,14.459 -7.826,19.23Z" style="fill:#fff;fill-rule:nonzero;"/><path d="M138.363,98.399c-4.844,2.832 -14.683,2.609 -19.975,-0.519c-7.901,-4.549 -7.453,-12.746 -7.453,-17.891l0,-14.087c0,-4.77 0.372,-7.825 -2.609,-8.719c-1.565,-0.522 -3.204,-0.149 -4.174,0.148l0,-1.191c1.715,-0.373 0.821,-0.373 3.056,-0.447c3.056,-0.075 4.547,0.818 6.411,0.818c1.788,0 3.353,-0.371 5.44,-0.596c2.459,-0.222 2.459,-0.297 4.1,0l0,1.119c-2.162,-0.298 -3.578,-0.373 -5.367,0.747c-1.79,1.117 -1.491,4.396 -1.491,8.941l0,12.598c0,5.14 -0.67,13.191 7.007,17.663c3.8,2.16 10.285,2.236 14.235,0c7.304,-4.247 6.634,-11.329 6.634,-17.365l0,-10.584c0,-4.845 0.223,-10.66 -2.759,-11.552c-1.565,-0.522 -3.353,-0.299 -4.322,-0.151l0,-1.191c1.714,-0.373 1.193,-0.373 3.354,-0.447c3.131,-0.075 3.652,0.521 4.769,0.521c1.119,0 1.566,-0.074 3.653,-0.299c2.46,-0.222 2.088,-0.222 3.727,0l0,1.119c-2.162,-0.298 -3.28,-0.298 -4.771,1.043c-1.49,1.342 -1.639,7.155 -1.639,11.778l0,9.314c0,6.262 0.596,14.459 -7.826,19.23Z" style="fill:none;stroke:#fff;stroke-width:0.47px;"/><path d="M171.417,76.933c3.429,-0.445 7.23,-2.311 9.54,-5.961c2.087,-3.205 2.013,-7.602 0.447,-10.287c-3.428,-6.112 -12.819,-4.918 -16.993,-4.918c-2.088,0 -2.907,0.519 -5.292,0.519c-1.864,0 -3.279,-0.593 -6.41,-0.593c-2.235,0 -0.968,0.447 -2.608,0.447l0,1.191c0.894,0 2.161,-0.67 3.726,-0.148c2.982,0.894 2.609,3.949 2.609,8.719l0,23.703c0,4.771 0.373,7.751 -2.609,8.72c-1.565,0.521 -2.682,-0.225 -3.652,-0.225l0,1.27c1.714,0 0.299,0.371 2.534,0.371c3.131,0 4.546,-0.818 6.41,-0.818c1.789,0 3.354,0.668 5.441,0.668l3.279,0l0,-1.192c-2.161,0 -2.758,0.447 -4.546,-0.744c-1.789,-1.119 -1.491,-4.324 -1.491,-8.871l0,-12.82c0.671,0.449 2.236,0.969 4.398,1.342c1.788,1.267 13.608,21.388 15.62,24.892c5.814,10.658 15.841,26.568 28.213,22.99l-0.223,-0.821c-8.125,2.235 -19.791,-17.251 -23.145,-23.287c-2.236,-4.175 -13.311,-23.549 -15.248,-24.147Zm-3.652,-1.565c-1.864,0 -2.832,-0.222 -5.963,-1.49l0,-10.508c0,-2.164 -0.149,-4.697 1.416,-5.369c1.118,-0.519 4.471,-0.818 7.229,0c2.609,0.822 5.293,2.983 6.261,6.039c0.746,2.237 0.746,5.291 -0.968,7.528c-2.087,2.906 -4.621,3.8 -7.975,3.8Z" style="fill:#fff;fill-rule:nonzero;"/><path d="M171.417,76.933c3.429,-0.445 7.23,-2.311 9.54,-5.961c2.087,-3.205 2.013,-7.602 0.447,-10.287c-3.428,-6.112 -12.819,-4.918 -16.993,-4.918c-2.088,0 -2.907,0.519 -5.292,0.519c-1.864,0 -3.279,-0.593 -6.41,-0.593c-2.235,0 -0.968,0.447 -2.608,0.447l0,1.191c0.894,0 2.161,-0.67 3.726,-0.148c2.982,0.894 2.609,3.949 2.609,8.719l0,23.703c0,4.771 0.373,7.751 -2.609,8.72c-1.565,0.521 -2.682,-0.225 -3.652,-0.225l0,1.27c1.714,0 0.299,0.371 2.534,0.371c3.131,0 4.546,-0.818 6.41,-0.818c1.789,0 3.354,0.668 5.441,0.668l3.279,0l0,-1.192c-2.161,0 -2.758,0.447 -4.546,-0.744c-1.789,-1.119 -1.491,-4.324 -1.491,-8.871l0,-12.82c0.671,0.449 2.236,0.969 4.398,1.342c1.788,1.267 13.608,21.388 15.62,24.892c5.814,10.658 15.841,26.568 28.213,22.99l-0.223,-0.821c-8.125,2.235 -19.791,-17.251 -23.145,-23.287c-2.236,-4.175 -13.311,-23.549 -15.248,-24.147Zm-3.652,-1.565c-1.864,0 -2.832,-0.222 -5.963,-1.49l0,-10.508c0,-2.164 -0.149,-4.697 1.416,-5.369c1.118,-0.519 4.471,-0.818 7.229,0c2.609,0.822 5.293,2.983 6.261,6.039c0.746,2.237 0.746,5.291 -0.968,7.528c-2.087,2.906 -4.621,3.8 -7.975,3.8Z" style="fill:none;stroke:#fff;stroke-width:0.47px;"/><path d="M227.201,69.034c0,-4.845 0.15,-10.66 -2.832,-11.552c-1.567,-0.522 -3.205,-0.225 -4.174,-0.151l0,-1.191c1.267,-0.149 1.045,-0.447 3.205,-0.447c3.131,0 3.652,0.521 4.844,0.521c1.117,0 1.639,-0.074 3.579,-0.299c2.533,-0.297 2.607,-0.222 3.353,0l0,1.119c-1.638,-0.224 -2.832,-0.373 -4.396,1.043c-1.419,1.342 -1.642,7.155 -1.642,11.778l0,29.812l-1.787,0l-33.317,-36.894l0,23.701c0,4.769 -0.223,10.583 2.758,11.552c1.564,0.524 3.28,0.373 4.172,0.074l0,1.27c-1.265,0.371 -1.043,0.371 -3.203,0.371c-3.13,0 -3.653,-0.522 -4.771,-0.522c-1.192,0 -1.565,-0.076 -3.652,0.372c-0.969,0.15 -2.012,0.15 -3.428,-0.149l0,-1.117c2.162,0.225 2.981,0.373 4.472,-0.969c1.416,-1.342 1.64,-7.156 1.64,-11.702l0,-25.415l-3.131,-2.683c-0.596,-0.746 -1.565,-0.746 -2.534,-0.596c-0.522,0.074 -1.491,0.297 -1.491,0.297l0,-0.971c1.565,-0.519 4.025,-0.593 4.025,-0.593c5.143,0 7.006,1.117 11.702,6.558l26.608,29.813l0,-23.03Z" style="fill:#fff;fill-rule:nonzero;"/><path d="M227.201,69.034c0,-4.845 0.15,-10.66 -2.832,-11.552c-1.567,-0.522 -3.205,-0.225 -4.174,-0.151l0,-1.191c1.267,-0.149 1.045,-0.447 3.205,-0.447c3.131,0 3.652,0.521 4.844,0.521c1.117,0 1.639,-0.074 3.579,-0.299c2.533,-0.297 2.607,-0.222 3.353,0l0,1.119c-1.638,-0.224 -2.832,-0.373 -4.396,1.043c-1.419,1.342 -1.642,7.155 -1.642,11.778l0,29.812l-1.787,0l-33.317,-36.894l0,23.701c0,4.769 -0.223,10.583 2.758,11.552c1.564,0.524 3.28,0.373 4.172,0.074l0,1.27c-1.265,0.371 -1.043,0.371 -3.203,0.371c-3.13,0 -3.653,-0.522 -4.771,-0.522c-1.192,0 -1.565,-0.076 -3.652,0.372c-0.969,0.15 -2.012,0.15 -3.428,-0.149l0,-1.117c2.162,0.225 2.981,0.373 4.472,-0.969c1.416,-1.342 1.64,-7.156 1.64,-11.702l0,-25.415l-3.131,-2.683c-0.596,-0.746 -1.565,-0.746 -2.534,-0.596c-0.522,0.074 -1.491,0.297 -1.491,0.297l0,-0.971c1.565,-0.519 4.025,-0.593 4.025,-0.593c5.143,0 7.006,1.117 11.702,6.558l26.608,29.813l0,-23.03Z" style="fill:none;stroke:#fff;stroke-width:0.47px;"/><path d="M273.413,75.368l0,-9.466c0,-4.77 0.447,-7.825 -2.61,-8.719c-1.566,-0.522 -2.83,0.148 -3.726,0.148l0,-1.191c1.638,0 0.373,-0.447 2.607,-0.447c3.131,0 4.547,0.818 6.41,0.818c1.791,0 3.356,-0.596 5.442,-0.596l3.279,0l0,1.119c-2.16,0 -2.758,-0.373 -4.547,0.747c-1.787,1.117 -1.49,4.396 -1.49,8.941l0,22.062c0,4.547 -0.297,7.752 1.49,8.871c1.789,1.191 2.387,0.744 4.547,0.744l0,1.192l-3.279,0c-2.086,0 -3.651,-0.668 -5.442,-0.668c-1.863,0 -3.279,0.818 -6.41,0.818c-2.234,0 -0.818,-0.371 -2.533,-0.371l0,-1.27c0.969,0 2.086,0.746 3.652,0.225c3.057,-0.969 2.61,-3.949 2.61,-8.72l0,-12.151l-24.448,0l0,11.33c0,4.547 -0.298,7.752 1.491,8.871c1.712,1.191 2.386,0.744 4.546,0.744l0,1.192l-3.355,0c-2.012,0 -3.576,-0.668 -5.365,-0.668c-1.865,0 -3.354,0.818 -6.485,0.818c-2.16,0 -0.82,-0.371 -2.459,-0.371l0,-1.27c0.969,0 2.088,0.746 3.653,0.225c2.98,-0.969 2.607,-3.949 2.607,-8.72l0,-23.703c0,-4.77 0.373,-7.825 -2.607,-8.719c-1.565,-0.522 -2.832,0.148 -3.729,0.148l0,-1.191c1.643,0 0.375,-0.447 2.535,-0.447c3.131,0 4.62,0.818 6.485,0.818c1.789,0 3.353,-0.596 5.365,-0.596l3.355,0l0,1.119c-2.16,0 -2.834,-0.373 -4.546,0.747c-1.789,1.117 -1.491,4.396 -1.491,8.941l0,8.646l24.448,0Z" style="fill:#fff;fill-rule:nonzero;"/><path d="M273.413,75.368l0,-9.466c0,-4.77 0.447,-7.825 -2.61,-8.719c-1.566,-0.522 -2.83,0.148 -3.726,0.148l0,-1.191c1.638,0 0.373,-0.447 2.607,-0.447c3.131,0 4.547,0.818 6.41,0.818c1.791,0 3.356,-0.596 5.442,-0.596l3.279,0l0,1.119c-2.16,0 -2.758,-0.373 -4.547,0.747c-1.787,1.117 -1.49,4.396 -1.49,8.941l0,22.062c0,4.547 -0.297,7.752 1.49,8.871c1.789,1.191 2.387,0.744 4.547,0.744l0,1.192l-3.279,0c-2.086,0 -3.651,-0.668 -5.442,-0.668c-1.863,0 -3.279,0.818 -6.41,0.818c-2.234,0 -0.818,-0.371 -2.533,-0.371l0,-1.27c0.969,0 2.086,0.746 3.652,0.225c3.057,-0.969 2.61,-3.949 2.61,-8.72l0,-12.151l-24.448,0l0,11.33c0,4.547 -0.298,7.752 1.491,8.871c1.712,1.191 2.386,0.744 4.546,0.744l0,1.192l-3.355,0c-2.012,0 -3.576,-0.668 -5.365,-0.668c-1.865,0 -3.354,0.818 -6.485,0.818c-2.16,0 -0.82,-0.371 -2.459,-0.371l0,-1.27c0.969,0 2.088,0.746 3.653,0.225c2.98,-0.969 2.607,-3.949 2.607,-8.72l0,-23.703c0,-4.77 0.373,-7.825 -2.607,-8.719c-1.565,-0.522 -2.832,0.148 -3.729,0.148l0,-1.191c1.643,0 0.375,-0.447 2.535,-0.447c3.131,0 4.62,0.818 6.485,0.818c1.789,0 3.353,-0.596 5.365,-0.596l3.355,0l0,1.119c-2.16,0 -2.834,-0.373 -4.546,0.747c-1.789,1.117 -1.491,4.396 -1.491,8.941l0,8.646l24.448,0Z" style="fill:none;stroke:#fff;stroke-width:0.47px;"/><path d="M324.168,93.109l-15.427,-37.416l-0.895,0l-12.596,32.943c-2.085,5.59 -3.875,9.019 -5.291,9.539c-1.341,0.523 -2.087,0.449 -3.429,0.15l0,1.117c1.564,0.299 1.342,0.225 3.803,0c2.085,-0.223 1.787,-0.299 2.98,-0.299c1.119,0 1.119,0.598 4.248,0.524c2.162,-0.076 0.895,-0.076 2.607,-0.448l0,-1.193c-0.966,0.373 -2.904,0.672 -4.322,-0.146c-1.34,-0.823 -1.043,-3.131 0.897,-8.201l3.724,-9.764l12.746,0l3.653,8.721c1.64,4.396 3.054,7.079 1.863,8.572c-0.82,1.117 -2.684,1.342 -4.322,0.967l0,1.267c1.638,0.225 1.342,0.299 3.801,0.149c2.085,-0.221 2.308,-0.52 4.097,-0.52c1.863,0 2.237,0.67 5.367,0.596c2.161,-0.076 1.268,-0.076 2.907,-0.448l0,-1.193c0,0 -1.266,0.373 -2.161,0.149c-2.162,-0.372 -2.609,-0.967 -4.25,-5.066Zm-22.955,-14.983l5.59,-14.609l5.739,14.609l-11.329,0Z" style="fill:#fff;fill-rule:nonzero;"/><path d="M324.168,93.109l-15.427,-37.416l-0.895,0l-12.596,32.943c-2.085,5.59 -3.875,9.019 -5.291,9.539c-1.341,0.523 -2.087,0.449 -3.429,0.15l0,1.117c1.564,0.299 1.342,0.225 3.803,0c2.085,-0.223 1.787,-0.299 2.98,-0.299c1.119,0 1.119,0.598 4.248,0.524c2.162,-0.076 0.895,-0.076 2.607,-0.448l0,-1.193c-0.966,0.373 -2.904,0.672 -4.322,-0.146c-1.34,-0.823 -1.043,-3.131 0.897,-8.201l3.724,-9.764l12.746,0l3.653,8.721c1.64,4.396 3.054,7.079 1.863,8.572c-0.82,1.117 -2.684,1.342 -4.322,0.967l0,1.267c1.638,0.225 1.342,0.299 3.801,0.149c2.085,-0.221 2.308,-0.52 4.097,-0.52c1.863,0 2.237,0.67 5.367,0.596c2.161,-0.076 1.268,-0.076 2.907,-0.448l0,-1.193c0,0 -1.266,0.373 -2.161,0.149c-2.162,-0.372 -2.609,-0.967 -4.25,-5.066Zm-22.955,-14.983l5.59,-14.609l5.739,14.609l-11.329,0Z" style="fill:none;stroke:#fff;stroke-width:0.47px;"/><path d="M383.758,98.175c1.416,0.671 2.61,0.224 3.43,-0.149l0,1.193c-1.566,0.522 -0.074,0.372 -2.311,0.448c-3.13,0.074 -4.546,-0.821 -6.41,-0.821c-1.789,0 -3.353,0.373 -5.441,0.596c-2.459,0.225 -1.639,0.299 -3.203,0l0,-1.117c2.162,0.225 2.683,0.373 4.47,-0.744c1.79,-1.12 1.118,-4.326 0.821,-8.945l-2.385,-25.119l-14.162,33.988l-0.893,0.15l-14.759,-34.658l-1.192,23.326c-0.15,4.846 -0.67,10.66 1.787,11.557c1.492,0.519 2.834,0.295 3.729,0.146l0,1.193c-1.641,0.372 -0.67,0.372 -2.906,0.448c-3.057,0.074 -3.579,-0.524 -4.772,-0.524c-1.117,0 -1.564,0.076 -3.652,0.299c-2.459,0.225 -2.086,0.225 -3.727,0l0,-1.117c2.162,0.299 3.205,0.299 4.918,-1.043c1.195,-1.043 2.162,-3.654 2.461,-9.39l1.268,-21.692c0.224,-2.83 0.744,-6.259 -0.746,-7.974c-1.043,-1.266 -2.385,-0.895 -4.325,-0.67l0,-1.117c2.537,-0.448 3.207,-0.746 5.891,-0.746c4.545,0 5.217,2.906 6.635,6.632l11.252,27.129l11.777,-27.65c2.684,-6.932 5.812,-6.336 12.221,-5.59l0,1.268c-5.737,-0.821 -6.409,1.937 -6.035,6.185l2.609,25.787c0.447,4.401 1.266,7.828 3.65,8.721Z" style="fill:#fff;fill-rule:nonzero;"/><path d="M383.758,98.175c1.416,0.671 2.61,0.224 3.43,-0.149l0,1.193c-1.566,0.522 -0.074,0.372 -2.311,0.448c-3.13,0.074 -4.546,-0.821 -6.41,-0.821c-1.789,0 -3.353,0.373 -5.441,0.596c-2.459,0.225 -1.639,0.299 -3.203,0l0,-1.117c2.162,0.225 2.683,0.373 4.47,-0.744c1.79,-1.12 1.118,-4.326 0.821,-8.945l-2.385,-25.119l-14.162,33.988l-0.893,0.15l-14.759,-34.658l-1.192,23.326c-0.15,4.846 -0.67,10.66 1.787,11.557c1.492,0.519 2.834,0.295 3.729,0.146l0,1.193c-1.641,0.372 -0.67,0.372 -2.906,0.448c-3.057,0.074 -3.579,-0.524 -4.772,-0.524c-1.117,0 -1.564,0.076 -3.652,0.299c-2.459,0.225 -2.086,0.225 -3.727,0l0,-1.117c2.162,0.299 3.205,0.299 4.918,-1.043c1.195,-1.043 2.162,-3.654 2.461,-9.39l1.268,-21.692c0.224,-2.83 0.744,-6.259 -0.746,-7.974c-1.043,-1.266 -2.385,-0.895 -4.325,-0.67l0,-1.117c2.537,-0.448 3.207,-0.746 5.891,-0.746c4.545,0 5.217,2.906 6.635,6.632l11.252,27.129l11.777,-27.65c2.684,-6.932 5.812,-6.336 12.221,-5.59l0,1.268c-5.737,-0.821 -6.409,1.937 -6.035,6.185l2.609,25.787c0.447,4.401 1.266,7.828 3.65,8.721Z" style="fill:none;stroke:#fff;stroke-width:0.47px;"/><path d="M186.577,122.746c-1.967,2.625 -2.06,3.043 -0.655,3.424c0.936,0.268 1.451,0.153 2.247,0.037l0,0.649c-0.984,0.152 -0.936,0.189 -2.294,0.189c-0.797,0 -1.639,-0.265 -2.342,-0.265c-0.748,0 -0.983,0.187 -2.294,0.187c-0.514,0 -1.03,0.078 -2.106,0l0,-0.605c1.311,0.113 1.825,0.15 2.763,-0.534c0.889,-0.685 1.871,-1.523 3.464,-3.5l5.291,-6.66l1.873,-2.511l1.685,-2.127c1.592,-2.133 4.401,-5.137 2.482,-5.631c-0.984,-0.268 -1.358,-0.039 -2.014,-0.039l0,-0.647c0.797,-0.115 1.31,-0.191 1.967,-0.191c1.544,0 1.966,0.267 2.668,0.267c0.75,0 0.984,-0.228 2.295,-0.228c1.123,0 1.217,0 2.154,0.152l0,0.608c-1.451,-0.266 -2.623,0 -3.511,0.685c-0.938,0.686 -3.091,3.387 -4.729,5.442l-2.155,2.701l-1.966,2.47l-4.823,6.127Z" style="fill:#fff;fill-rule:nonzero;"/><path d="M186.577,122.746c-1.967,2.625 -2.06,3.043 -0.655,3.424c0.936,0.268 1.451,0.153 2.247,0.037l0,0.649c-0.984,0.152 -0.936,0.189 -2.294,0.189c-0.797,0 -1.639,-0.265 -2.342,-0.265c-0.748,0 -0.983,0.187 -2.294,0.187c-0.514,0 -1.03,0.078 -2.106,0l0,-0.605c1.311,0.113 1.825,0.15 2.763,-0.534c0.889,-0.685 1.871,-1.523 3.464,-3.5l5.291,-6.66l1.873,-2.511l1.685,-2.127c1.592,-2.133 4.401,-5.137 2.482,-5.631c-0.984,-0.268 -1.358,-0.039 -2.014,-0.039l0,-0.647c0.797,-0.115 1.31,-0.191 1.967,-0.191c1.544,0 1.966,0.267 2.668,0.267c0.75,0 0.984,-0.228 2.295,-0.228c1.123,0 1.217,0 2.154,0.152l0,0.608c-1.451,-0.266 -2.623,0 -3.511,0.685c-0.938,0.686 -3.091,3.387 -4.729,5.442l-2.155,2.701l-1.966,2.47l-4.823,6.127Z" style="fill:none;stroke:#fff;stroke-width:0.55px;"/><path d="M77.594,48.232c1.195,0 4.303,-0.219 6.813,0.326c5.739,0.982 8.728,5.236 10.162,10.144c1.076,3.817 0.837,10.358 -2.63,13.957c-5.619,5.998 -16.378,5.235 -24.386,5.235l0,-18.863c0,-6.874 0,-7.963 3.227,-9.708c1.673,-0.982 3.347,-1.091 6.814,-1.091Zm-5.858,-2.289c-2.51,0.326 -4.662,0.656 -8.488,0.437c-2.989,0 -5.379,-0.875 -10.28,-0.875c-3.588,0 -0.75,0.547 -3.38,0.547l-3.942,2.57c1.554,0 6.604,-1.806 9.115,-1.045c4.782,1.418 4.184,5.78 4.184,12.76l0,49.509c0,6.98 0.598,11.342 -4.184,12.76c-2.511,0.761 -5.619,-0.328 -7.173,-0.328l0,1.853c2.63,0 1.792,0.547 5.38,0.547c4.901,0 7.172,-0.764 10.161,-0.764c3.825,0 7.411,0.653 7.411,0.653c11.237,0.763 25.583,1.638 35.626,-10.032c5.14,-5.779 5.737,-13.523 3.825,-19.193c-3.825,-10.36 -13.389,-13.849 -22.834,-16.14c6.336,-2.291 13.628,-5.234 16.617,-12.431c1.793,-4.252 0.957,-11.123 -2.032,-14.614c-7.173,-8.832 -25.105,-6.652 -30.006,-6.214Zm-4.183,74.7l0,-40.023c5.02,0 21.876,-0.763 29.407,8.834c4.185,5.452 5.022,14.175 2.63,20.173c-2.032,5.672 -6.336,10.252 -12.433,11.998c-4.901,1.416 -10.879,1.309 -19.604,-0.982Z" style="fill:#fff;fill-rule:nonzero;"/></g><defs><linearGradient id="_Linear1" x1="0" y1="0" x2="1" y2="0" gradientUnits="userSpaceOnUse" gradientTransform="matrix(208.527,-248.513,248.513,208.527,109.724,221.432)"><stop offset="0" style="stop-color:#00533e;stop-opacity:1"/><stop offset="0.3" style="stop-color:#639181;stop-opacity:1"/><stop offset="0.5" style="stop-color:#a8c2b9;stop-opacity:1"/><stop offset="0.7" style="stop-color:#608e7f;stop-opacity:1"/><stop offset="1" style="stop-color:#00533e;stop-opacity:1"/></linearGradient><linearGradient id="_Linear2" x1="0" y1="0" x2="1" y2="0" gradientUnits="userSpaceOnUse" gradientTransform="matrix(-7.67399e-06,175.56,-175.56,-7.67399e-06,213.956,9.43287)"><stop offset="0" style="stop-color:#b66d62;stop-opacity:1"/><stop offset="1" style="stop-color:#933530;stop-opacity:1"/></linearGradient><linearGradient id="_Linear5" x1="0" y1="0" x2="1" y2="0" gradientUnits="userSpaceOnUse" gradientTransform="matrix(-209.271,-1.8295e-05,1.8295e-05,-209.271,388.95,117.082)"><stop offset="0" style="stop-color:#fff;stop-opacity:1"/><stop offset="0.6" style="stop-color:#679485;stop-opacity:1"/><stop offset="1" style="stop-color:#0f604c;stop-opacity:1"/></linearGradient><linearGradient id="_Linear7" x1="0" y1="0" x2="1" y2="0" gradientUnits="userSpaceOnUse" gradientTransform="matrix(148.198,-124.353,124.353,148.198,57.938,145.495)"><stop offset="0" style="stop-color:#933530;stop-opacity:1"/><stop offset="0.2" style="stop-color:#b66f63;stop-opacity:1"/><stop offset="0.4" style="stop-color:#c78d81;stop-opacity:1"/><stop offset="0.5" style="stop-color:#c99084;stop-opacity:1"/><stop offset="1" style="stop-color:#933530;stop-opacity:1"/></linearGradient><linearGradient id="_Linear8" x1="0" y1="0" x2="1" y2="0" gradientUnits="userSpaceOnUse" gradientTransform="matrix(53.8544,-45.1892,45.1892,53.8544,232.127,102.147)"><stop offset="0" style="stop-color:#933530;stop-opacity:1"/><stop offset="0.2" style="stop-color:#b66f63;stop-opacity:1"/><stop offset="0.4" style="stop-color:#c78d81;stop-opacity:1"/><stop offset="0.5" style="stop-color:#c99084;stop-opacity:1"/><stop offset="1" style="stop-color:#933530;stop-opacity:1"/></linearGradient><linearGradient id="_Linear9" x1="0" y1="0" x2="1" y2="0" gradientUnits="userSpaceOnUse" gradientTransform="matrix(38.9926,-32.7187,32.7187,38.9926,284.813,106.302)"><stop offset="0" style="stop-color:#933530;stop-opacity:1"/><stop offset="0.2" style="stop-color:#b66f63;stop-opacity:1"/><stop offset="0.4" style="stop-color:#c78d81;stop-opacity:1"/><stop offset="0.5" style="stop-color:#c99084;stop-opacity:1"/><stop offset="1" style="stop-color:#933530;stop-opacity:1"/></linearGradient><linearGradient id="_Linear10" x1="0" y1="0" x2="1" y2="0" gradientUnits="userSpaceOnUse" gradientTransform="matrix(55.9537,-46.9507,46.9507,55.9537,329.198,104.823)"><stop offset="0" style="stop-color:#933530;stop-opacity:1"/><stop offset="0.2" style="stop-color:#b66f63;stop-opacity:1"/><stop offset="0.4" style="stop-color:#c78d81;stop-opacity:1"/><stop offset="0.5" style="stop-color:#c99084;stop-opacity:1"/><stop offset="1" style="stop-color:#933530;stop-opacity:1"/></linearGradient></defs></svg>