<?xml version="1.0" encoding="UTF-8" standalone="no"?><!DOCTYPE svg PUBLIC "-//W3C//DTD SVG 1.1//EN" "http://www.w3.org/Graphics/SVG/1.1/DTD/svg11.dtd"><svg width="100%" height="100%" viewBox="0 0 1024 1024" version="1.1" xmlns="http://www.w3.org/2000/svg" xmlns:xlink="http://www.w3.org/1999/xlink" xml:space="preserve" xmlns:serif="http://www.serif.com/" style="fill-rule:evenodd;clip-rule:evenodd;stroke-miterlimit:2;"><g><path d="M162.295,368.389c-100.753,42.583 -156.243,101.881 -156.243,166.967c0,65.079 55.493,124.372 156.246,166.957c93.847,39.661 218.065,61.51 349.778,61.51c131.71,0 255.928,-21.849 349.774,-61.51c100.755,-42.585 156.246,-101.878 156.246,-166.957c0,-65.086 -55.491,-124.384 -156.246,-166.967c-93.846,-39.665 -218.064,-61.51 -349.774,-61.51c-131.713,0 -255.931,21.845 -349.781,61.51Z" style="fill:url(#_Linear1);"/><path d="M162.295,368.389c-100.753,42.583 -156.243,101.881 -156.243,166.967c0,65.079 55.493,124.372 156.246,166.957c93.847,39.661 218.065,61.51 349.778,61.51c131.71,0 255.928,-21.849 349.774,-61.51c100.755,-42.585 156.246,-101.878 156.246,-166.957c0,-65.086 -55.491,-124.384 -156.246,-166.967c-93.846,-39.665 -218.064,-61.51 -349.774,-61.51c-131.713,0 -255.931,21.845 -349.781,61.51Z" style="fill:none;stroke:#437b69;stroke-width:2.78px;"/><path d="M992.814,535.356c0,112.218 -215.235,203.183 -480.738,203.183c-265.507,0 -480.745,-90.965 -480.745,-203.183c0,-112.227 215.238,-203.197 480.745,-203.197c265.503,0 480.738,90.97 480.738,203.197Z" style="fill:url(#_Linear2);"/><path d="M992.814,535.356c0,112.218 -215.235,203.183 -480.738,203.183c-265.507,0 -480.745,-90.965 -480.745,-203.183c0,-112.227 215.238,-203.197 480.745,-203.197c265.503,0 480.738,90.97 480.738,203.197Z" style="fill:none;stroke:#437b69;stroke-width:2.78px;"/><clipPath id="_clip3"><path d="M992.925,533.532c0,112.22 -215.233,203.19 -480.74,203.19c-265.505,0 -480.743,-90.97 -480.743,-203.19c0,-112.225 221.553,-203.195 480.743,-203.195c265.507,0 480.74,90.973 480.74,203.195Z"/></clipPath><g clip-path="url(#_clip3)"><clipPath id="_clip4"><path d="M435.402,555.737c0,0 25.07,42.017 32.97,46.11c7.898,4.091 25.666,8.182 25.666,8.182l520.417,0l0,-55.233l-579.053,0.941Z"/></clipPath><g clip-path="url(#_clip4)"><rect x="435.402" y="554.796" width="557.524" height="55.232" style="fill:url(#_Linear5);fill-rule:nonzero;"/></g></g><clipPath id="_clip6"><path d="M992.925,533.532c0,112.22 -215.233,203.19 -480.74,203.19c-265.505,0 -480.743,-90.97 -480.743,-203.19c0,-112.225 221.553,-203.195 480.743,-203.195c265.507,0 480.74,90.973 480.74,203.195Z"/></clipPath><g clip-path="url(#_clip6)"><path d="M109.183,651.672c203.019,-77.028 427.921,-4.221 593.135,14.004c125.234,13.81 203.482,-15.148 229.886,-27.348l2.177,69.666c-26.404,12.204 -235.91,79.576 -361.148,65.761c-165.21,-18.225 -288.677,-3.735 -461.876,-52.418l-2.174,-69.665Z" style="fill:#a95b4f;fill-rule:nonzero;"/></g><path d="M702.347,599.547c2.345,0.346 4.82,0.516 7.423,0.516c2.684,0 5.058,-0.199 7.116,-0.601c2.061,-0.403 3.819,-0.971 5.28,-1.701c1.462,-0.732 2.876,-1.812 4.24,-3.238c1.365,-1.426 2.414,-3.25 3.151,-5.472c0.736,-2.222 1.104,-4.522 1.104,-6.9c0,-3.402 -0.711,-6.322 -2.13,-8.765c-1.416,-2.439 -3.555,-4.311 -6.415,-5.609c-2.856,-1.298 -6.781,-1.949 -11.77,-1.949c-2.625,0 -5.292,0.175 -7.999,0.519c-0.067,0.897 -0.121,2.489 -0.166,4.775l-0.13,3.977l0,10.949l0.099,8.503c0.021,1.301 0.088,2.964 0.197,4.996Zm-9.921,2.997l0,-1.315c1.225,-0.604 2.248,-1.151 3.073,-1.646c0.132,-1.244 0.241,-2.973 0.327,-5.186c0.151,-3.771 0.227,-6.386 0.227,-7.852l0,-11.197c0,-1.793 -0.047,-3.899 -0.147,-6.313c-0.085,-1.521 -0.237,-2.461 -0.45,-2.826c-0.152,-0.239 -0.379,-0.412 -0.68,-0.523c-0.708,-0.259 -2.181,-0.394 -4.422,-0.413l0,-1.738c3.117,0.099 5.869,0.147 8.262,0.147c1.833,0 4.337,-0.031 7.504,-0.093c3.17,-0.059 5.631,-0.092 7.381,-0.092c5.23,0 9.433,0.571 12.614,1.717c3.181,1.142 5.879,3.058 8.101,5.745c2.217,2.69 3.328,5.974 3.328,9.854c0,2.778 -0.523,5.386 -1.568,7.819c-1.045,2.435 -2.463,4.56 -4.254,6.381c-1.793,1.819 -3.712,3.262 -5.761,4.321c-2.049,1.061 -4.197,1.862 -6.448,2.402c-2.25,0.54 -5.337,0.808 -9.262,0.808c-1.303,0 -3.06,-0.029 -5.28,-0.093c-2.901,-0.059 -4.799,-0.092 -5.697,-0.092c-1.3,0 -3.584,0.064 -6.848,0.185Z" style="fill:#933530;fill-rule:nonzero;"/><path d="M702.347,599.547c2.345,0.346 4.82,0.516 7.423,0.516c2.684,0 5.058,-0.199 7.116,-0.601c2.061,-0.403 3.819,-0.971 5.28,-1.701c1.462,-0.732 2.876,-1.812 4.24,-3.238c1.365,-1.426 2.414,-3.25 3.151,-5.472c0.736,-2.222 1.104,-4.522 1.104,-6.9c0,-3.402 -0.711,-6.322 -2.13,-8.765c-1.416,-2.439 -3.555,-4.311 -6.415,-5.609c-2.856,-1.298 -6.781,-1.949 -11.77,-1.949c-2.625,0 -5.292,0.175 -7.999,0.519c-0.067,0.897 -0.121,2.489 -0.166,4.775l-0.13,3.977l0,10.949l0.099,8.503c0.021,1.301 0.088,2.964 0.197,4.996Zm-9.921,2.997l0,-1.315c1.225,-0.604 2.248,-1.151 3.073,-1.646c0.132,-1.244 0.241,-2.973 0.327,-5.186c0.151,-3.771 0.227,-6.386 0.227,-7.852l0,-11.197c0,-1.793 -0.047,-3.899 -0.147,-6.313c-0.085,-1.521 -0.237,-2.461 -0.45,-2.826c-0.152,-0.239 -0.379,-0.412 -0.68,-0.523c-0.708,-0.259 -2.181,-0.394 -4.422,-0.413l0,-1.738c3.117,0.099 5.869,0.147 8.262,0.147c1.833,0 4.337,-0.031 7.504,-0.093c3.17,-0.059 5.631,-0.092 7.381,-0.092c5.23,0 9.433,0.571 12.614,1.717c3.181,1.142 5.879,3.058 8.101,5.745c2.217,2.69 3.328,5.974 3.328,9.854c0,2.778 -0.523,5.386 -1.568,7.819c-1.045,2.435 -2.463,4.56 -4.254,6.381c-1.793,1.819 -3.712,3.262 -5.761,4.321c-2.049,1.061 -4.197,1.862 -6.448,2.402c-2.25,0.54 -5.337,0.808 -9.262,0.808c-1.303,0 -3.06,-0.029 -5.28,-0.093c-2.901,-0.059 -4.799,-0.092 -5.697,-0.092c-1.3,0 -3.584,0.064 -6.848,0.185Z" style="fill:none;stroke:#933530;stroke-width:3.22px;"/><path d="M741.692,565.273l0,-1.738c0.831,0.014 2.099,0.038 3.806,0.068l6.136,0.117c1.215,0 3.103,-0.031 5.661,-0.088c3.323,-0.09 5.254,-0.135 5.784,-0.135c4.072,0 7.04,0.31 8.907,0.936c1.864,0.618 3.309,1.629 4.33,3.029c1.026,1.4 1.537,2.923 1.537,4.57c0,1.537 -0.478,3.062 -1.437,4.583c-0.957,1.518 -2.348,2.781 -4.167,3.788c-1.819,1.004 -4.188,1.783 -7.104,2.331c0.533,0.642 1.791,2.068 3.773,4.28l8.061,9.103c2.291,2.556 3.629,3.98 4.011,4.273c0.189,0.131 0.381,0.223 0.573,0.275c0.317,0.093 1.018,0.14 2.101,0.14l0,1.739c-1.616,-0.121 -3.027,-0.185 -4.238,-0.185c-1.255,0 -2.792,0.064 -4.619,0.185c-1.386,-1.372 -3.709,-4.051 -6.971,-8.035c-1.812,-2.215 -3.411,-4.063 -4.797,-5.543c-2.238,-2.449 -4.37,-4.674 -6.393,-6.668l0.317,-0.822c1.107,0.054 1.95,0.083 2.523,0.083c3.875,0 6.813,-0.787 8.814,-2.362c1.999,-1.573 3.001,-3.65 3.001,-6.232c0,-2.25 -0.862,-4.041 -2.589,-5.37c-1.726,-1.324 -4.337,-1.988 -7.831,-1.988c-2.196,0 -4.346,0.285 -6.457,0.851c-0.083,0.99 -0.145,1.914 -0.187,2.774c-0.022,0.256 -0.095,2.918 -0.22,7.987l0,12.19c0,2.489 0.049,4.917 0.149,7.279c0.04,1.739 0.185,2.771 0.429,3.101c0.243,0.331 0.644,0.571 1.196,0.729c0.554,0.154 2.082,0.249 4.593,0.287l0,1.739c-3.032,-0.121 -5.816,-0.185 -8.355,-0.185c-2.049,0 -5.493,0.064 -10.337,0.185l0,-1.739c2.508,-0.038 4.039,-0.133 4.593,-0.289c0.552,-0.156 0.933,-0.37 1.146,-0.647c0.254,-0.365 0.415,-1.253 0.479,-2.665c0.024,-0.383 0.073,-2.984 0.149,-7.802l0,-12.725c0,-2.49 -0.038,-4.927 -0.111,-7.31c-0.067,-1.739 -0.221,-2.769 -0.464,-3.089c-0.244,-0.322 -0.638,-0.562 -1.182,-0.716c-0.541,-0.154 -2.08,-0.251 -4.61,-0.289Z" style="fill:#933530;fill-rule:nonzero;"/><path d="M741.692,565.273l0,-1.738c0.831,0.014 2.099,0.038 3.806,0.068l6.136,0.117c1.215,0 3.103,-0.031 5.661,-0.088c3.323,-0.09 5.254,-0.135 5.784,-0.135c4.072,0 7.04,0.31 8.907,0.936c1.864,0.618 3.309,1.629 4.33,3.029c1.026,1.4 1.537,2.923 1.537,4.57c0,1.537 -0.478,3.062 -1.437,4.583c-0.957,1.518 -2.348,2.781 -4.167,3.788c-1.819,1.004 -4.188,1.783 -7.104,2.331c0.533,0.642 1.791,2.068 3.773,4.28l8.061,9.103c2.291,2.556 3.629,3.98 4.011,4.273c0.189,0.131 0.381,0.223 0.573,0.275c0.317,0.093 1.018,0.14 2.101,0.14l0,1.739c-1.616,-0.121 -3.027,-0.185 -4.238,-0.185c-1.255,0 -2.792,0.064 -4.619,0.185c-1.386,-1.372 -3.709,-4.051 -6.971,-8.035c-1.812,-2.215 -3.411,-4.063 -4.797,-5.543c-2.238,-2.449 -4.37,-4.674 -6.393,-6.668l0.317,-0.822c1.107,0.054 1.95,0.083 2.523,0.083c3.875,0 6.813,-0.787 8.814,-2.362c1.999,-1.573 3.001,-3.65 3.001,-6.232c0,-2.25 -0.862,-4.041 -2.589,-5.37c-1.726,-1.324 -4.337,-1.988 -7.831,-1.988c-2.196,0 -4.346,0.285 -6.457,0.851c-0.083,0.99 -0.145,1.914 -0.187,2.774c-0.022,0.256 -0.095,2.918 -0.22,7.987l0,12.19c0,2.489 0.049,4.917 0.149,7.279c0.04,1.739 0.185,2.771 0.429,3.101c0.243,0.331 0.644,0.571 1.196,0.729c0.554,0.154 2.082,0.249 4.593,0.287l0,1.739c-3.032,-0.121 -5.816,-0.185 -8.355,-0.185c-2.049,0 -5.493,0.064 -10.337,0.185l0,-1.739c2.508,-0.038 4.039,-0.133 4.593,-0.289c0.552,-0.156 0.933,-0.37 1.146,-0.647c0.254,-0.365 0.415,-1.253 0.479,-2.665c0.024,-0.383 0.073,-2.984 0.149,-7.802l0,-12.725c0,-2.49 -0.038,-4.927 -0.111,-7.31c-0.067,-1.739 -0.221,-2.769 -0.464,-3.089c-0.244,-0.322 -0.638,-0.562 -1.182,-0.716c-0.541,-0.154 -2.08,-0.251 -4.61,-0.289Z" style="fill:none;stroke:#933530;stroke-width:3.22px;"/><path d="M784.979,565.273l0,-1.738c3.475,0.123 6.71,0.185 9.697,0.185c3.032,0 6.041,-0.062 9.03,-0.185l0,1.738c-2.511,0.038 -4.039,0.135 -4.593,0.289c-0.552,0.154 -0.924,0.37 -1.116,0.645c-0.277,0.367 -0.447,1.253 -0.509,2.662c-0.026,0.365 -0.073,2.964 -0.149,7.793l0,10.153c0,3.935 0.291,6.528 0.879,7.781c0.585,1.253 1.52,2.291 2.8,3.113c0.98,0.623 2.304,1.123 3.967,1.497c1.663,0.374 3.518,0.561 5.564,0.561c2.391,0 4.513,-0.251 6.37,-0.753c1.855,-0.504 3.245,-1.116 4.174,-1.838c0.926,-0.725 1.62,-1.535 2.08,-2.43c0.459,-0.896 0.791,-2.125 0.99,-3.689c0.203,-1.563 0.305,-3.546 0.305,-5.943l0,-8.452c0,-2.487 -0.049,-4.922 -0.147,-7.298c-0.045,-1.741 -0.187,-2.766 -0.431,-3.089c-0.244,-0.319 -0.642,-0.559 -1.196,-0.713c-0.552,-0.154 -2.084,-0.251 -4.591,-0.289l0,-1.738c3.513,0.123 6.079,0.185 7.699,0.185c1.471,0 4.122,-0.062 7.957,-0.185l0,1.738c-2.53,0.038 -4.068,0.135 -4.608,0.289c-0.544,0.154 -0.921,0.37 -1.134,0.647c-0.254,0.365 -0.412,1.253 -0.476,2.66c-0.024,0.367 -0.069,2.966 -0.133,7.798l0,9.193c0,4.525 -0.37,7.682 -1.104,9.473c-0.737,1.793 -2.087,3.376 -4.048,4.749c-1.474,1.026 -3.366,1.822 -5.683,2.388c-2.312,0.566 -4.877,0.851 -7.696,0.851c-3.283,0 -6.13,-0.332 -8.542,-1c-2.411,-0.67 -4.247,-1.549 -5.505,-2.637c-1.26,-1.089 -2.122,-2.2 -2.591,-3.335c-0.597,-1.502 -0.896,-4.017 -0.896,-7.549l0,-12.133c0,-2.489 -0.037,-4.924 -0.111,-7.303c-0.064,-1.738 -0.22,-2.766 -0.464,-3.089c-0.244,-0.319 -0.637,-0.559 -1.18,-0.713c-0.542,-0.154 -2.08,-0.251 -4.609,-0.289Z" style="fill:#933530;fill-rule:nonzero;"/><path d="M784.979,565.273l0,-1.738c3.475,0.123 6.71,0.185 9.697,0.185c3.032,0 6.041,-0.062 9.03,-0.185l0,1.738c-2.511,0.038 -4.039,0.135 -4.593,0.289c-0.552,0.154 -0.924,0.37 -1.116,0.645c-0.277,0.367 -0.447,1.253 -0.509,2.662c-0.026,0.365 -0.073,2.964 -0.149,7.793l0,10.153c0,3.935 0.291,6.528 0.879,7.781c0.585,1.253 1.52,2.291 2.8,3.113c0.98,0.623 2.304,1.123 3.967,1.497c1.663,0.374 3.518,0.561 5.564,0.561c2.391,0 4.513,-0.251 6.37,-0.753c1.855,-0.504 3.245,-1.116 4.174,-1.838c0.926,-0.725 1.62,-1.535 2.08,-2.43c0.459,-0.896 0.791,-2.125 0.99,-3.689c0.203,-1.563 0.305,-3.546 0.305,-5.943l0,-8.452c0,-2.487 -0.049,-4.922 -0.147,-7.298c-0.045,-1.741 -0.187,-2.766 -0.431,-3.089c-0.244,-0.319 -0.642,-0.559 -1.196,-0.713c-0.552,-0.154 -2.084,-0.251 -4.591,-0.289l0,-1.738c3.513,0.123 6.079,0.185 7.699,0.185c1.471,0 4.122,-0.062 7.957,-0.185l0,1.738c-2.53,0.038 -4.068,0.135 -4.608,0.289c-0.544,0.154 -0.921,0.37 -1.134,0.647c-0.254,0.365 -0.412,1.253 -0.476,2.66c-0.024,0.367 -0.069,2.966 -0.133,7.798l0,9.193c0,4.525 -0.37,7.682 -1.104,9.473c-0.737,1.793 -2.087,3.376 -4.048,4.749c-1.474,1.026 -3.366,1.822 -5.683,2.388c-2.312,0.566 -4.877,0.851 -7.696,0.851c-3.283,0 -6.13,-0.332 -8.542,-1c-2.411,-0.67 -4.247,-1.549 -5.505,-2.637c-1.26,-1.089 -2.122,-2.2 -2.591,-3.335c-0.597,-1.502 -0.896,-4.017 -0.896,-7.549l0,-12.133c0,-2.489 -0.037,-4.924 -0.111,-7.303c-0.064,-1.738 -0.22,-2.766 -0.464,-3.089c-0.244,-0.319 -0.637,-0.559 -1.18,-0.713c-0.542,-0.154 -2.08,-0.251 -4.609,-0.289Z" style="fill:none;stroke:#933530;stroke-width:3.22px;"/><path d="M880.539,600.397c-3.243,1.002 -5.9,1.678 -7.968,2.023c-3.648,0.602 -7.107,0.901 -10.371,0.901c-4.927,0 -9.314,-0.827 -13.153,-2.481c-3.84,-1.655 -6.806,-3.972 -8.895,-6.952c-2.092,-2.982 -3.139,-6.5 -3.139,-10.562c0,-3.565 0.753,-6.595 2.258,-9.092c1.504,-2.496 3.385,-4.548 5.635,-6.156c2.255,-1.608 4.501,-2.797 6.741,-3.565c3.437,-1.17 7.685,-1.758 12.747,-1.758c2.368,0.019 4.863,0.254 7.476,0.699c2.617,0.45 5.569,1.069 8.854,1.855c-0.317,0.931 -0.564,1.845 -0.734,2.741c-0.171,0.897 -0.394,2.733 -0.671,5.514l-1.961,0l-0.161,-3.122c-0.024,-0.476 -0.043,-0.86 -0.064,-1.151c-0.021,-0.294 -0.161,-0.666 -0.417,-1.123c-0.576,-0.658 -1.495,-1.251 -2.752,-1.779c-2.177,-0.713 -3.978,-1.189 -5.394,-1.426c-1.421,-0.234 -3.113,-0.355 -5.074,-0.355c-4.055,0 -7.566,0.739 -10.534,2.219c-2.966,1.481 -5.211,3.601 -6.739,6.36c-1.525,2.76 -2.288,5.773 -2.288,9.044c0,3.601 0.89,6.839 2.672,9.717c1.781,2.878 4.171,5.079 7.165,6.607c2.999,1.523 6.493,2.288 10.482,2.288c1.876,0 3.695,-0.154 5.455,-0.462c1.76,-0.308 3.248,-0.73 4.465,-1.275c0.197,-0.729 0.296,-1.904 0.296,-3.515l0,-3.051c0,-1.613 -0.097,-2.553 -0.289,-2.83c-0.191,-0.275 -0.708,-0.481 -1.551,-0.616c-0.843,-0.14 -2.776,-0.244 -5.806,-0.318l0,-1.665l9.98,0.185c1.94,0 3.922,-0.062 5.95,-0.185l0.192,1.331l-2.407,1.208c-0.246,1.955 -0.369,3.757 -0.369,5.399c0,1.648 0.123,3.43 0.369,5.348Z" style="fill:#933530;fill-rule:nonzero;"/><path d="M880.539,600.397c-3.243,1.002 -5.9,1.678 -7.968,2.023c-3.648,0.602 -7.107,0.901 -10.371,0.901c-4.927,0 -9.314,-0.827 -13.153,-2.481c-3.84,-1.655 -6.806,-3.972 -8.895,-6.952c-2.092,-2.982 -3.139,-6.5 -3.139,-10.562c0,-3.565 0.753,-6.595 2.258,-9.092c1.504,-2.496 3.385,-4.548 5.635,-6.156c2.255,-1.608 4.501,-2.797 6.741,-3.565c3.437,-1.17 7.685,-1.758 12.747,-1.758c2.368,0.019 4.863,0.254 7.476,0.699c2.617,0.45 5.569,1.069 8.854,1.855c-0.317,0.931 -0.564,1.845 -0.734,2.741c-0.171,0.897 -0.394,2.733 -0.671,5.514l-1.961,0l-0.161,-3.122c-0.024,-0.476 -0.043,-0.86 -0.064,-1.151c-0.021,-0.294 -0.161,-0.666 -0.417,-1.123c-0.576,-0.658 -1.495,-1.251 -2.752,-1.779c-2.177,-0.713 -3.978,-1.189 -5.394,-1.426c-1.421,-0.234 -3.113,-0.355 -5.074,-0.355c-4.055,0 -7.566,0.739 -10.534,2.219c-2.966,1.481 -5.211,3.601 -6.739,6.36c-1.525,2.76 -2.288,5.773 -2.288,9.044c0,3.601 0.89,6.839 2.672,9.717c1.781,2.878 4.171,5.079 7.165,6.607c2.999,1.523 6.493,2.288 10.482,2.288c1.876,0 3.695,-0.154 5.455,-0.462c1.76,-0.308 3.248,-0.73 4.465,-1.275c0.197,-0.729 0.296,-1.904 0.296,-3.515l0,-3.051c0,-1.613 -0.097,-2.553 -0.289,-2.83c-0.191,-0.275 -0.708,-0.481 -1.551,-0.616c-0.843,-0.14 -2.776,-0.244 -5.806,-0.318l0,-1.665l9.98,0.185c1.94,0 3.922,-0.062 5.95,-0.185l0.192,1.331l-2.407,1.208c-0.246,1.955 -0.369,3.757 -0.369,5.399c0,1.648 0.123,3.43 0.369,5.348Z" style="fill:none;stroke:#933530;stroke-width:3.22px;"/><path d="M886.757,601.177c0.334,-1.76 0.531,-4.61 0.592,-8.551l2.149,0c0.104,2.674 0.284,4.252 0.528,4.737c0.246,0.483 0.839,1.002 1.777,1.549c0.94,0.552 2.198,1.04 3.778,1.469c1.58,0.431 3.105,0.647 4.581,0.647c2.156,0 4.141,-0.427 5.953,-1.277c1.814,-0.853 3.136,-1.966 3.97,-3.35c0.834,-1.381 1.248,-2.859 1.248,-4.432c0,-1.205 -0.208,-2.245 -0.62,-3.122c-0.417,-0.874 -1.052,-1.582 -1.903,-2.12c-0.852,-0.537 -1.909,-0.916 -3.167,-1.134c-0.788,-0.112 -2.364,-0.294 -4.73,-0.55c-2.366,-0.256 -4.38,-0.54 -6.043,-0.85c-2.215,-0.585 -3.847,-1.27 -4.889,-2.056c-1.047,-0.787 -1.893,-1.817 -2.544,-3.099c-0.649,-1.279 -0.976,-2.657 -0.976,-4.138c0,-2.155 0.659,-4.19 1.969,-6.099c1.312,-1.907 3.252,-3.393 5.822,-4.456c2.57,-1.059 5.36,-1.59 8.369,-1.59c1.812,0 3.79,0.207 5.934,0.621c2.146,0.412 4.143,1.014 6,1.8c-0.296,1.149 -0.51,2.22 -0.638,3.215c-0.13,0.995 -0.225,2.461 -0.289,4.396l-2.146,0c-0.064,-2.809 -0.161,-4.339 -0.286,-4.595c-0.536,-0.656 -1.263,-1.249 -2.18,-1.777c-2.2,-1.056 -4.498,-1.587 -6.888,-1.587c-3.096,0 -5.569,0.808 -7.416,2.421c-1.848,1.613 -2.772,3.702 -2.772,6.27c0,1.556 0.329,2.757 0.993,3.608c0.658,0.85 1.84,1.53 3.546,2.044c1.172,0.348 3.088,0.67 5.751,0.971c2.662,0.303 5.057,0.628 7.187,0.976c1.999,0.512 3.48,1.121 4.439,1.824c0.957,0.706 1.746,1.627 2.364,2.774c0.618,1.142 0.924,2.482 0.924,4.02c0,3.64 -1.756,6.817 -5.271,9.524c-3.515,2.708 -8.061,4.061 -13.644,4.061c-4.216,0 -8.039,-0.713 -11.472,-2.144Z" style="fill:#933530;fill-rule:nonzero;"/><path d="M886.757,601.177c0.334,-1.76 0.531,-4.61 0.592,-8.551l2.149,0c0.104,2.674 0.284,4.252 0.528,4.737c0.246,0.483 0.839,1.002 1.777,1.549c0.94,0.552 2.198,1.04 3.778,1.469c1.58,0.431 3.105,0.647 4.581,0.647c2.156,0 4.141,-0.427 5.953,-1.277c1.814,-0.853 3.136,-1.966 3.97,-3.35c0.834,-1.381 1.248,-2.859 1.248,-4.432c0,-1.205 -0.208,-2.245 -0.62,-3.122c-0.417,-0.874 -1.052,-1.582 -1.903,-2.12c-0.852,-0.537 -1.909,-0.916 -3.167,-1.134c-0.788,-0.112 -2.364,-0.294 -4.73,-0.55c-2.366,-0.256 -4.38,-0.54 -6.043,-0.85c-2.215,-0.585 -3.847,-1.27 -4.889,-2.056c-1.047,-0.787 -1.893,-1.817 -2.544,-3.099c-0.649,-1.279 -0.976,-2.657 -0.976,-4.138c0,-2.155 0.659,-4.19 1.969,-6.099c1.312,-1.907 3.252,-3.393 5.822,-4.456c2.57,-1.059 5.36,-1.59 8.369,-1.59c1.812,0 3.79,0.207 5.934,0.621c2.146,0.412 4.143,1.014 6,1.8c-0.296,1.149 -0.51,2.22 -0.638,3.215c-0.13,0.995 -0.225,2.461 -0.289,4.396l-2.146,0c-0.064,-2.809 -0.161,-4.339 -0.286,-4.595c-0.536,-0.656 -1.263,-1.249 -2.18,-1.777c-2.2,-1.056 -4.498,-1.587 -6.888,-1.587c-3.096,0 -5.569,0.808 -7.416,2.421c-1.848,1.613 -2.772,3.702 -2.772,6.27c0,1.556 0.329,2.757 0.993,3.608c0.658,0.85 1.84,1.53 3.546,2.044c1.172,0.348 3.088,0.67 5.751,0.971c2.662,0.303 5.057,0.628 7.187,0.976c1.999,0.512 3.48,1.121 4.439,1.824c0.957,0.706 1.746,1.627 2.364,2.774c0.618,1.142 0.924,2.482 0.924,4.02c0,3.64 -1.756,6.817 -5.271,9.524c-3.515,2.708 -8.061,4.061 -13.644,4.061c-4.216,0 -8.039,-0.713 -11.472,-2.144Z" style="fill:none;stroke:#933530;stroke-width:3.22px;"/><path d="M385.148,483.118l0,-23.719c0,0 -0.009,-2.058 -0.009,-2.475c0,-3.823 0.187,-7.758 2.331,-8.674c2.113,-0.981 9.603,-1.824 15.965,0.068c4.861,1.528 11.384,5.908 13.692,13.185c1.466,4.396 1.809,11.275 -2.023,16.276c-4.259,5.933 -9.331,8.338 -17.536,8.338c-3.821,0 -5.979,-0.436 -12.42,-2.999Zm-168.423,-2.895c-11.496,12.268 -33.241,12.069 -50.713,11.913c0,0 -2.414,-0.017 -4.117,-0.029l0,-42.988c0,-16.589 0.154,-17.934 6.748,-21.494c3.679,-2.158 7.493,-2.379 15.331,-2.379l2.032,-0.037c3.402,-0.088 9.094,-0.24 13.744,0.772c11.287,1.933 18.931,9.61 22.797,22.837c2.293,8.137 2.006,23.276 -5.822,31.405Zm11.779,42.017c9.139,11.903 11.719,31.727 5.989,46.096c-4.906,13.689 -15.227,23.659 -28.336,27.412c-11.628,3.358 -25.746,2.693 -44.262,-2.03l0,-91.762c0.336,-0.002 0.784,-0.004 0.784,-0.004c13.561,-0.109 49.59,-0.401 65.825,20.288Zm320.598,-82.193l-1.146,0.13l-7.13,0.564l-2.618,-0.365c-1.727,-0.367 -4.091,-0.867 -8.857,-0.867c-3.458,0 -4.602,0.324 -5.708,0.639l-3.442,0.709l-0.149,1.414l0,4.702l3.086,-0.294c2.194,-0.225 5.197,-0.535 7.969,0.391c5.296,1.585 5.547,12.917 5.547,22.641l0,53.185c-5.41,-6.057 -60.055,-67.287 -60.055,-67.287c-11.555,-13.388 -16.437,-16.1 -28.989,-16.1c-0.301,0.009 -6.173,0.199 -10.074,1.495l-1.168,0.386l0,5.606l5.479,-1.094c2.378,-0.365 3.695,-0.128 4.432,0.787l0.099,0.125c0,0 5.936,5.091 6.941,5.953l0,59.415c0,20.277 -2.099,25.296 -3.354,26.481c-2.791,2.518 -4.03,2.383 -8.639,1.902l-1.691,-0.18c-7.408,-13.14 -22.719,-39.686 -29.991,-47.944c8.503,-1.971 16.088,-6.973 20.613,-14.125c2.866,-4.403 4.069,-9.416 4.069,-14.12c0,-4.572 -1.135,-8.854 -2.977,-12.014c-7.585,-13.528 -26.306,-12.941 -37.488,-12.595l-4.238,0.097c-2.537,0 -4.354,0.308 -6.112,0.606c-1.795,0.308 -3.65,0.626 -6.424,0.626l-5.327,-0.55c-2.596,-0.4 -5.541,-0.857 -9.856,-0.857c-1.301,0 -2.192,0.064 -2.869,0.182c-1.286,-0.111 -2.208,-0.033 -5.045,0.228l-1.329,0.12c-0.031,0.003 -2.201,0.24 -2.201,0.24l-6.298,0.462l-2.289,-0.368c-1.731,-0.414 -4.102,-0.985 -9.051,-0.864l-0.016,0c-4.07,0.14 -4.314,0.175 -6.249,0.639l-3.326,0.758l-0.016,1.365l0,4.811l1.966,-0.301c2.515,-0.389 6.232,-0.782 9.437,0.289c5.436,1.627 5.401,13.748 5.372,23.493l-0.005,2.253l0,25.071l0.019,3.349c0.114,13.528 0.233,27.518 -14.883,36.306c-8.683,4.92 -23.356,4.92 -32.02,-0.009c-16.006,-9.321 -15.859,-25.673 -15.753,-37.611l0.019,-2.743l0,-29.84l-0.026,-4.069c-0.071,-8.054 -0.123,-13.869 2.755,-15.667c3.688,-2.305 6.488,-2.227 11.576,-1.523l1.938,0.267l0,-6.033l-1.4,-0.253c-3.563,-0.645 -4.243,-0.581 -8.009,-0.223l-2.16,0.201c-0.031,0.003 -4.975,0.657 -4.975,0.657c-2.764,0.402 -5.154,0.753 -7.76,0.753c-1.691,0 -3.288,-0.358 -5.14,-0.772c-2.681,-0.6 -5.72,-1.277 -10.086,-1.168c-3.745,0.125 -4.006,0.166 -5.256,0.523l-1.516,0.377c-1.22,-3.326 -2.831,-6.334 -4.837,-8.677c-16.71,-20.575 -55.875,-16.882 -70.618,-15.492l-1.975,0.185l-1.095,0.142c-5.555,0.73 -10.351,1.36 -18.694,0.884c-3.084,-0.005 -5.813,-0.389 -8.978,-0.834c-4.14,-0.583 -8.833,-1.239 -15.472,-1.239c-3.729,0 -5.25,0.213 -6.041,1.182c-0.331,0.017 -2.418,0.135 -2.418,0.135l-0.479,0.251l-14.146,9.222l5.739,0c1.436,0 3.629,-0.49 6.408,-1.111c4.719,-1.056 11.185,-2.499 14.689,-1.435c8.567,2.539 8.868,9.077 8.731,23.618l-0.028,4.975l0,117.273l0.028,4.974c0.137,14.542 -0.164,21.077 -8.719,23.614c-3.67,1.113 -8.132,0.355 -11.719,-0.256l-6.703,-0.826l0.208,1.942l0,6.092l1.708,0c2.667,0 3.657,0.247 4.806,0.529c1.478,0.36 3.153,0.767 7.936,0.767c6.625,0 11.223,-0.573 15.28,-1.082c3.108,-0.389 5.792,-0.728 8.791,-0.728c8.79,0 17.164,1.505 17.247,1.519c26.042,1.781 61.455,4.19 85.988,-24.327c8.705,-9.788 11.801,-21.433 11.801,-31.751c0,-5.709 -0.945,-11.01 -2.416,-15.369c-8.546,-23.15 -28.704,-32.258 -50.085,-37.966c14.774,-5.678 28.913,-13.095 35.318,-28.513c1.588,-3.762 2.338,-8.269 2.338,-12.9c0,-2.961 -0.329,-5.967 -0.921,-8.876c2.755,-0.635 5.202,-0.654 7.251,0.031c4.943,1.482 5.114,5.86 5.031,15.626l-0.019,3.409l0,33.371l-0.005,1.855c-0.052,12.45 -0.13,31.263 18.515,41.996c13.056,7.719 36.893,8.321 49.028,1.224c19.583,-11.093 19.476,-29.486 19.393,-44.262l-0.009,-2.758l0,-22.065c0,-5.848 0,-23.64 3.318,-26.629c0.893,-0.806 1.708,-1.348 2.535,-1.729l0,0.665l1.708,-0.265l2.655,-0.379c0.815,-0.173 1.649,-0.339 2.513,-0.408c0.176,0.024 0.33,0.041 0.515,0.067l1.937,0.267l0,-0.132c0.223,0.05 0.438,0.071 0.666,0.147c4.943,1.482 5.114,5.86 5.031,15.622l-0.019,3.413l0,56.147l0.019,3.411c0.083,9.674 -0.088,14.018 -5.019,15.619c-1.99,0.661 -3.558,0.273 -5.221,-0.139l-4.887,-0.801l0.277,2.032l0,4.605c0,0 3.2,0.199 3.222,0.199c0.824,0.547 1.682,0.784 4.489,0.784c4.365,0 7.333,-0.635 9.951,-1.194c1.873,-0.397 3.489,-0.746 5.232,-0.746c1.874,0 3.693,0.349 5.619,0.718c2.231,0.426 4.539,0.865 7.267,0.865l9.475,0l0,-6.297l-4.95,0.188c-2.715,0.161 -3.838,0.229 -6.578,-1.597c-2.485,-1.556 -2.817,-5.957 -2.817,-12.145c0,-1.077 0.01,-2.207 0.019,-3.387l0.026,-4.058l0,-27.69c2.04,0.784 4.735,1.506 7.91,2.077c3.936,3.392 27.754,43.31 36.322,58.229c5.567,10.207 12.28,21.508 20.016,31.317c-2.961,3.729 -11.488,14.457 -11.488,14.457c-3.731,4.633 -5.953,6.497 -7.91,8.004c-1.691,1.232 -2.394,1.172 -5.358,0.912l-1.852,-0.157l0,4.984l5.64,0.05l1.056,-0.038l3.779,-0.286l1.655,-0.154l2.319,0.274l3.227,0.353l4.716,-0.312l2.416,-0.386l0.009,-1.455l0,-3.51l-2.43,0.355c-1.535,0.232 -2.459,0.369 -4.131,-0.111c-0.017,-0.005 -0.58,-0.214 -0.905,-0.332c0.334,-1.056 2.402,-3.847 3.354,-5.114c-0.019,0.026 6.9,-8.765 9.958,-12.652c12.593,14.353 27.632,23.989 44.711,19.05l1.613,-0.467l-1.419,-5.213l-1.649,0.452c-9.318,2.565 -22.143,-9.193 -34.186,-25.23l2.125,-2.662c3.563,-4.465 8.85,-11.098 10.875,-12.578c1.824,-1.403 4.169,-1.843 7.005,-1.324l2.013,0.369l0,-5.074l-1.431,-0.092l-5.379,-0.386l-3.833,0.357l-1.603,0.185l-1.595,-0.199l-4.725,-0.436l-4.804,0.46l-1.545,0.147l-0.016,1.554l0,3.373l3.259,-0.258c0.839,-0.107 1.5,-0.19 2.774,0.151c0.017,0.01 0.206,0.085 0.277,0.107c0.003,0.028 0.01,0.057 0.01,0.087c0,1.431 -3.397,5.747 -5.062,7.862l-2.028,2.618c0.005,-0.005 -0.102,0.128 -0.251,0.317c-5.301,-7.558 -10.352,-15.754 -14.76,-23.69c-0.019,-0.038 -0.203,-0.369 -0.5,-0.909c1.948,0.199 3.762,0.175 5.603,-0.109c4.187,-0.893 5.301,-0.884 7.324,-0.865l1.066,0.005l2.413,0.353c1.715,0.374 4.063,0.883 8.886,0.883c4.706,0 4.889,0 7.319,-0.722l1.971,-0.588l0.005,-1.272l0,-5.374l-2.246,0.748c-1.663,0.554 -5.384,0.971 -8.802,-0.175c-5.039,-1.639 -5.377,-12.104 -5.377,-21.343c0,-0.739 0.007,-4.403 0.007,-4.403l0,-51.71c5.505,6.095 76.456,84.662 76.456,84.662l6.699,0l0,-72.319c0,-20.435 2.101,-25.473 3.354,-26.658c3.12,-2.823 5.335,-2.52 9.009,-2.02l1.94,0.263l0,-5.875l-1.459,-0.436c-1.884,-0.563 -2.549,-0.67 -8.393,0.015Z" style="fill:url(#_Linear7);"/><path d="M664.963,447.601c2.842,-1.775 4.013,-1.72 6.839,-1.592l4.78,0.135l-0.048,-1.753l0,-4.359l-9.475,0c-2.705,0 -5.005,0.394 -7.227,0.773c-1.937,0.331 -3.764,0.644 -5.656,0.644c-1.746,0 -3.359,-0.348 -5.233,-0.746c-2.62,-0.559 -5.59,-1.194 -9.956,-1.194c-2.873,0 -3.799,0.286 -4.673,0.89c-0.079,0.055 -0.083,0.06 -0.083,0.06l-2.994,0.225l-0.128,1.587l0,4.794l1.705,-0.265l2.656,-0.379c1.745,-0.37 3.548,-0.753 5.63,-0.059c4.46,1.305 5.067,4.834 5.067,12.324c0,0.896 -0.01,1.846 -0.024,2.857l-0.028,3.854l0,20.72l-54.498,0l0,-18.778l-0.024,-4.069c-0.014,-1.208 -0.024,-2.369 -0.024,-3.47c0,-6.24 0.329,-10.672 2.776,-12.197c2.725,-1.779 3.923,-1.722 6.83,-1.594l4.787,0.135l-0.045,-1.753l0,-4.359l-9.651,0c-2.6,0 -4.848,0.389 -7.028,0.763c-1.94,0.336 -3.775,0.654 -5.682,0.654c-1.748,0 -3.399,-0.348 -5.316,-0.749c-2.665,-0.556 -5.685,-1.191 -10.048,-1.191c-2.795,0 -3.688,0.291 -4.539,0.907c-0.047,0.036 -0.054,0.043 -0.054,0.045c-0.005,0.002 -2.985,0.223 -2.985,0.223l-0.13,1.587l0,4.794l1.708,-0.265l2.655,-0.379c1.748,-0.37 3.558,-0.753 5.636,-0.059c4.941,1.482 5.111,5.86 5.028,15.631l-0.019,3.404l0,56.147l0.019,3.404c0.083,9.676 -0.087,14.025 -5.014,15.626c-1.99,0.661 -3.563,0.273 -5.223,-0.139l-4.887,-0.801l0.277,2.032l0,4.605c0,0 3.101,0.197 3.124,0.197c0.827,0.549 1.67,0.786 4.404,0.786c4.363,0 7.383,-0.63 10.048,-1.189c1.917,-0.402 3.568,-0.751 5.316,-0.751c1.892,0 3.716,0.358 5.649,0.727c2.184,0.422 4.442,0.856 7.061,0.856l9.651,0l0,-6.292l-4.96,0.183c-2.786,0.161 -3.942,0.234 -6.543,-1.578c-2.511,-1.575 -2.845,-5.972 -2.845,-12.164c0,-1.073 0.01,-2.2 0.024,-3.377l0.024,-4.068l0,-25.135l54.498,0l0,27.078l0.028,3.851c0.014,1 0.024,1.938 0.024,2.822c0,7.43 -0.602,10.946 -5.043,12.353c-2.004,0.665 -3.577,0.277 -5.238,-0.135l-4.879,-0.801l0.277,2.032l0,4.605c0,0 3.195,0.199 3.219,0.199c0.824,0.547 1.68,0.784 4.484,0.784c4.366,0 7.336,-0.635 9.956,-1.194c1.874,-0.397 3.487,-0.746 5.233,-0.746c1.878,0 3.695,0.353 5.625,0.718c2.229,0.426 4.534,0.865 7.258,0.865l9.475,0l0,-6.297l-4.95,0.188c-2.715,0.161 -3.845,0.229 -6.578,-1.597c-2.914,-1.829 -2.864,-7.578 -2.796,-15.539l0.024,-4.051l0,-52.262l-0.024,-4.05c-0.068,-8.063 -0.123,-13.888 2.753,-15.688Z" style="fill:url(#_Linear8);"/><path d="M716.152,492.65c1.345,-3.52 8.53,-22.286 10.785,-28.186c2.307,5.881 9.681,24.647 11.069,28.186l-21.854,0Zm62.379,47.536c-4.304,-0.746 -5.062,-1.398 -8.897,-10.979c-0.005,-0.015 -36.988,-89.698 -36.988,-89.698l-4.432,0l-30.259,79.126c-6.538,17.515 -10.024,21.056 -11.524,21.605c-2.821,1.097 -4.205,0.953 -7.17,0.292l-2.073,-0.462l0,6.185l1.383,0.263c3.224,0.616 3.563,0.606 6.962,0.263l2.523,-0.24c0.021,-0.004 3.942,-0.495 3.942,-0.495l2.961,-0.208l1.835,0.346c1.388,0.426 3.291,1.013 8.267,0.893c3.16,-0.112 3.527,-0.152 4.359,-0.495l3.387,-0.948l0.097,-1.319l0,-5.309l-2.319,0.893c-2.016,0.777 -6.019,1.355 -8.776,-0.237c-0.725,-0.445 -1.097,-1.388 -1.097,-2.873c0,-2.786 1.296,-7.49 3.966,-14.461c0,0 6.668,-17.479 8.406,-22.032l27.878,0c0.791,1.888 8.213,19.611 8.213,19.611c-0.022,-0.064 1.911,4.965 1.911,4.965c2.597,6.649 4.47,11.455 2.743,13.616c-1.364,1.854 -4.853,2.529 -8.525,1.688l-2.082,-0.476l0,6.614l3.196,0.471c2.257,0.349 2.835,0.403 7.615,0.112c0.074,-0.01 4.733,-0.723 4.733,-0.723c1.504,-0.296 2.587,-0.507 4.872,-0.507c1.675,0 2.739,0.244 4.089,0.559c1.954,0.448 4.169,0.957 8.663,0.851c3.451,-0.119 3.825,-0.157 5.028,-0.521l3.464,-0.912l0.056,-1.329l0,-5.103l-2.184,0.64c-0.717,0.208 -2.868,0.675 -4.223,0.334Z" style="fill:url(#_Linear9);"/><path d="M916.623,539.935c-1.843,0.838 -4.03,1.625 -6.687,0.365c-5.259,-1.976 -6.827,-10.852 -7.685,-19.287l-6.18,-61.083c-0.533,-6.09 0.05,-9.47 1.962,-11.275c1.854,-1.758 5.256,-2.253 10.401,-1.516l1.942,0.277l0,-6.486l-2.883,-0.339c-14.17,-1.665 -22.721,-2.669 -29.358,14.481c0.017,-0.041 -20.435,47.972 -26.289,61.713c-2.757,-6.644 -25.099,-60.515 -25.099,-60.515c0.019,0.048 -0.772,-2.068 -0.772,-2.068c-2.923,-7.883 -5.451,-14.693 -16.52,-14.693c-4.998,0 -7.222,0.438 -10.595,1.101l-5.039,0.948l-0.023,1.421l0,4.576l3.572,-0.445c3.811,-0.495 5.561,-0.632 7.059,1.189c2.674,3.077 2.096,9.561 1.587,15.281l-0.204,2.388c-0.005,0.038 -3.001,51.416 -3.001,51.416c-0.746,14.267 -3.267,19.327 -5.252,21.056c-3.489,2.731 -5.375,2.743 -10.294,2.068l-1.938,-0.268l0,6.088l2.354,0.325c2.831,0.398 2.99,0.383 7.005,0.009l1.329,-0.121c0.026,-0.004 2.368,-0.26 2.368,-0.26l6.131,-0.443l2.497,0.388c1.722,0.412 4.086,0.967 8.842,0.851c3.534,-0.119 3.909,-0.157 5.053,-0.517l3.437,-0.921l0.059,-1.324l0,-4.837l-2.004,0.331c-2.049,0.339 -4.856,0.806 -7.971,-0.277c-2.816,-1.026 -3.442,-6.943 -3.442,-13.535c0,-2.795 0.116,-5.709 0.218,-8.43l0.133,-3.743c0,0 1.679,-32.836 2.444,-47.842c4.871,11.441 32.592,76.535 32.592,76.535l4.373,-0.742c0,0 26.819,-64.357 31.279,-75.068c1.014,10.666 5.008,52.703 5.008,52.703c-0.005,-0.053 0.415,5.464 0.415,5.464c0.601,7.249 1.037,12.484 -1.569,14.113c-3.456,2.161 -4.33,2.068 -8.534,1.613l-2.859,-0.3l0.004,5.945l2.409,0.472c1.824,0.36 2.004,0.369 3.869,0.151l3.169,-0.327c0.028,-0.004 5.01,-0.658 5.01,-0.658c2.752,-0.401 5.126,-0.749 7.727,-0.749c1.675,0 3.238,0.356 5.043,0.763c2.67,0.606 5.69,1.286 10.179,1.18c0.016,0 2.21,-0.06 2.21,-0.06l2.174,-0.435l2.646,-1.083l0.107,-1.184l0,-5.477l-2.409,1.097Z" style="fill:url(#_Linear10);"/><path d="M333.012,538.158c-11.474,6.709 -34.781,6.18 -47.316,-1.229c-18.716,-10.776 -17.655,-30.192 -17.655,-42.38l0,-33.368c0,-11.299 0.882,-18.536 -6.18,-20.654c-3.707,-1.236 -7.589,-0.353 -9.887,0.351l0,-2.821c4.063,-0.884 1.945,-0.884 7.239,-1.059c7.239,-0.178 10.771,1.938 15.186,1.938c4.236,0 7.943,-0.879 12.886,-1.412c5.825,-0.526 5.825,-0.704 9.712,0l0,2.65c-5.121,-0.705 -8.475,-0.883 -12.713,1.77c-4.24,2.646 -3.532,10.413 -3.532,21.179l0,29.842c0,12.175 -1.587,31.246 16.598,41.839c9.001,5.117 24.363,5.297 33.719,0c17.302,-10.06 15.715,-26.836 15.715,-41.133l0,-25.071c0,-11.477 0.528,-25.251 -6.536,-27.364c-3.707,-1.237 -7.942,-0.709 -10.237,-0.358l0,-2.821c4.06,-0.884 2.826,-0.884 7.944,-1.059c7.417,-0.178 8.651,1.234 11.297,1.234c2.651,0 3.71,-0.175 8.653,-0.708c5.827,-0.526 4.946,-0.526 8.828,0l0,2.65c-5.121,-0.705 -7.769,-0.705 -11.301,2.471c-3.529,3.179 -3.882,16.949 -3.882,27.899l0,22.063c0,14.833 1.412,34.25 -18.538,45.551Z" style="fill:#fff;fill-rule:nonzero;"/><path d="M333.012,538.158c-11.474,6.709 -34.781,6.18 -47.316,-1.229c-18.716,-10.776 -17.655,-30.192 -17.655,-42.38l0,-33.368c0,-11.299 0.882,-18.536 -6.18,-20.654c-3.707,-1.236 -7.589,-0.353 -9.887,0.351l0,-2.821c4.063,-0.884 1.945,-0.884 7.239,-1.059c7.239,-0.178 10.771,1.938 15.186,1.938c4.236,0 7.943,-0.879 12.886,-1.412c5.825,-0.526 5.825,-0.704 9.712,0l0,2.65c-5.121,-0.705 -8.475,-0.883 -12.713,1.77c-4.24,2.646 -3.532,10.413 -3.532,21.179l0,29.842c0,12.175 -1.587,31.246 16.598,41.839c9.001,5.117 24.363,5.297 33.719,0c17.302,-10.06 15.715,-26.836 15.715,-41.133l0,-25.071c0,-11.477 0.528,-25.251 -6.536,-27.364c-3.707,-1.237 -7.942,-0.709 -10.237,-0.358l0,-2.821c4.06,-0.884 2.826,-0.884 7.944,-1.059c7.417,-0.178 8.651,1.234 11.297,1.234c2.651,0 3.71,-0.175 8.653,-0.708c5.827,-0.526 4.946,-0.526 8.828,0l0,2.65c-5.121,-0.705 -7.769,-0.705 -11.301,2.471c-3.529,3.179 -3.882,16.949 -3.882,27.899l0,22.063c0,14.833 1.412,34.25 -18.538,45.551Z" style="fill:none;stroke:#fff;stroke-width:1.94px;"/><path d="M411.309,487.31c8.122,-1.054 17.126,-5.474 22.598,-14.12c4.943,-7.592 4.768,-18.007 1.059,-24.367c-8.12,-14.478 -30.365,-11.65 -40.253,-11.65c-4.946,0 -6.886,1.23 -12.535,1.23c-4.416,0 -7.767,-1.405 -15.184,-1.405c-5.294,0 -2.293,1.059 -6.178,1.059l0,2.821c2.118,0 5.119,-1.587 8.826,-0.351c7.064,2.118 6.18,9.355 6.18,20.654l0,56.146c0,11.302 0.884,18.361 -6.18,20.656c-3.707,1.234 -6.353,-0.533 -8.65,-0.533l0,3.008c4.06,0 0.708,0.879 6.002,0.879c7.417,0 10.768,-1.938 15.184,-1.938c4.238,0 7.945,1.583 12.888,1.583l7.767,0l0,-2.824c-5.118,0 -6.533,1.059 -10.768,-1.762c-4.238,-2.651 -3.532,-10.243 -3.532,-21.013l0,-30.368c1.59,1.064 5.297,2.295 10.418,3.179c4.235,3.001 32.234,50.663 37,58.963c13.772,25.246 37.524,62.933 66.83,54.458l-0.528,-1.945c-19.246,5.294 -46.88,-40.863 -54.825,-55.161c-5.297,-9.89 -31.531,-55.782 -36.119,-57.199Zm-8.651,-3.707c-4.415,0 -6.708,-0.526 -14.125,-3.529l0,-24.891c0,-5.126 -0.353,-11.126 3.354,-12.718c2.649,-1.229 10.591,-1.938 17.124,0c6.18,1.947 12.538,7.066 14.831,14.305c1.767,5.299 1.767,12.533 -2.293,17.832c-4.944,6.884 -10.946,9.001 -18.891,9.001Z" style="fill:#fff;fill-rule:nonzero;"/><path d="M411.309,487.31c8.122,-1.054 17.126,-5.474 22.598,-14.12c4.943,-7.592 4.768,-18.007 1.059,-24.367c-8.12,-14.478 -30.365,-11.65 -40.253,-11.65c-4.946,0 -6.886,1.23 -12.535,1.23c-4.416,0 -7.767,-1.405 -15.184,-1.405c-5.294,0 -2.293,1.059 -6.178,1.059l0,2.821c2.118,0 5.119,-1.587 8.826,-0.351c7.064,2.118 6.18,9.355 6.18,20.654l0,56.146c0,11.302 0.884,18.361 -6.18,20.656c-3.707,1.234 -6.353,-0.533 -8.65,-0.533l0,3.008c4.06,0 0.708,0.879 6.002,0.879c7.417,0 10.768,-1.938 15.184,-1.938c4.238,0 7.945,1.583 12.888,1.583l7.767,0l0,-2.824c-5.118,0 -6.533,1.059 -10.768,-1.762c-4.238,-2.651 -3.532,-10.243 -3.532,-21.013l0,-30.368c1.59,1.064 5.297,2.295 10.418,3.179c4.235,3.001 32.234,50.663 37,58.963c13.772,25.246 37.524,62.933 66.83,54.458l-0.528,-1.945c-19.246,5.294 -46.88,-40.863 -54.825,-55.161c-5.297,-9.89 -31.531,-55.782 -36.119,-57.199Zm-8.651,-3.707c-4.415,0 -6.708,-0.526 -14.125,-3.529l0,-24.891c0,-5.126 -0.353,-11.126 3.354,-12.718c2.649,-1.229 10.591,-1.938 17.124,0c6.18,1.947 12.538,7.066 14.831,14.305c1.767,5.299 1.767,12.533 -2.293,17.832c-4.944,6.884 -10.946,9.001 -18.891,9.001Z" style="fill:none;stroke:#fff;stroke-width:1.94px;"/><path d="M543.448,468.6c0,-11.477 0.355,-25.251 -6.708,-27.364c-3.712,-1.237 -7.592,-0.533 -9.888,-0.358l0,-2.821c3.002,-0.353 2.476,-1.059 7.592,-1.059c7.417,0 8.651,1.234 11.474,1.234c2.646,0 3.883,-0.175 8.478,-0.708c6,-0.704 6.176,-0.526 7.943,0l0,2.65c-3.88,-0.53 -6.709,-0.883 -10.413,2.471c-3.362,3.179 -3.89,16.949 -3.89,27.899l0,70.618l-4.233,0l-78.92,-87.393l0,56.142c0,11.296 -0.528,25.068 6.533,27.364c3.705,1.241 7.77,0.883 9.883,0.175l0,3.008c-2.997,0.879 -2.471,0.879 -7.587,0.879c-7.415,0 -8.654,-1.236 -11.302,-1.236c-2.823,0 -3.707,-0.18 -8.651,0.881c-2.295,0.355 -4.766,0.355 -8.12,-0.353l0,-2.646c5.122,0.533 7.062,0.884 10.593,-2.295c3.355,-3.179 3.885,-16.951 3.885,-27.72l0,-60.202l-7.416,-6.355c-1.412,-1.767 -3.708,-1.767 -6.003,-1.412c-1.236,0.175 -3.532,0.704 -3.532,0.704l0,-2.3c3.707,-1.23 9.535,-1.405 9.535,-1.405c12.182,0 16.595,2.646 27.719,15.534l63.028,70.62l0,-54.552Z" style="fill:#fff;fill-rule:nonzero;"/><path d="M543.448,468.6c0,-11.477 0.355,-25.251 -6.708,-27.364c-3.712,-1.237 -7.592,-0.533 -9.888,-0.358l0,-2.821c3.002,-0.353 2.476,-1.059 7.592,-1.059c7.417,0 8.651,1.234 11.474,1.234c2.646,0 3.883,-0.175 8.478,-0.708c6,-0.704 6.176,-0.526 7.943,0l0,2.65c-3.88,-0.53 -6.709,-0.883 -10.413,2.471c-3.362,3.179 -3.89,16.949 -3.89,27.899l0,70.618l-4.233,0l-78.92,-87.393l0,56.142c0,11.296 -0.528,25.068 6.533,27.364c3.705,1.241 7.77,0.883 9.883,0.175l0,3.008c-2.997,0.879 -2.471,0.879 -7.587,0.879c-7.415,0 -8.654,-1.236 -11.302,-1.236c-2.823,0 -3.707,-0.18 -8.651,0.881c-2.295,0.355 -4.766,0.355 -8.12,-0.353l0,-2.646c5.122,0.533 7.062,0.884 10.593,-2.295c3.355,-3.179 3.885,-16.951 3.885,-27.72l0,-60.202l-7.416,-6.355c-1.412,-1.767 -3.708,-1.767 -6.003,-1.412c-1.236,0.175 -3.532,0.704 -3.532,0.704l0,-2.3c3.707,-1.23 9.535,-1.405 9.535,-1.405c12.182,0 16.595,2.646 27.719,15.534l63.028,70.62l0,-54.552Z" style="fill:none;stroke:#fff;stroke-width:1.94px;"/><path d="M652.913,483.603l0,-22.422c0,-11.299 1.059,-18.536 -6.182,-20.654c-3.71,-1.236 -6.704,0.351 -8.826,0.351l0,-2.821c3.88,0 0.883,-1.059 6.175,-1.059c7.417,0 10.771,1.938 15.184,1.938c4.242,0 7.949,-1.412 12.891,-1.412l7.767,0l0,2.65c-5.117,0 -6.533,-0.883 -10.771,1.77c-4.233,2.646 -3.529,10.413 -3.529,21.179l0,52.26c0,10.77 -0.704,18.362 3.529,21.013c4.238,2.821 5.654,1.762 10.771,1.762l0,2.824l-7.767,0c-4.942,0 -8.649,-1.583 -12.891,-1.583c-4.413,0 -7.767,1.938 -15.184,1.938c-5.292,0 -1.938,-0.879 -6,-0.879l0,-3.008c2.295,0 4.941,1.767 8.651,0.533c7.241,-2.295 6.182,-9.354 6.182,-20.656l0,-28.782l-57.911,0l0,26.838c0,10.77 -0.706,18.362 3.531,21.013c4.056,2.821 5.652,1.762 10.769,1.762l0,2.824l-7.947,0c-4.766,0 -8.471,-1.583 -12.709,-1.583c-4.418,0 -7.945,1.938 -15.361,1.938c-5.117,0 -1.943,-0.879 -5.825,-0.879l0,-3.008c2.295,0 4.946,1.767 8.653,0.533c7.059,-2.295 6.175,-9.354 6.175,-20.656l0,-56.146c0,-11.299 0.884,-18.536 -6.175,-20.654c-3.707,-1.236 -6.708,0.351 -8.833,0.351l0,-2.821c3.892,0 0.888,-1.059 6.005,-1.059c7.416,0 10.943,1.938 15.361,1.938c4.238,0 7.943,-1.412 12.709,-1.412l7.947,0l0,2.65c-5.117,0 -6.713,-0.883 -10.769,1.77c-4.237,2.646 -3.531,10.413 -3.531,21.179l0,20.48l57.911,0Z" style="fill:#fff;fill-rule:nonzero;"/><path d="M652.913,483.603l0,-22.422c0,-11.299 1.059,-18.536 -6.182,-20.654c-3.71,-1.236 -6.704,0.351 -8.826,0.351l0,-2.821c3.88,0 0.883,-1.059 6.175,-1.059c7.417,0 10.771,1.938 15.184,1.938c4.242,0 7.949,-1.412 12.891,-1.412l7.767,0l0,2.65c-5.117,0 -6.533,-0.883 -10.771,1.77c-4.233,2.646 -3.529,10.413 -3.529,21.179l0,52.26c0,10.77 -0.704,18.362 3.529,21.013c4.238,2.821 5.654,1.762 10.771,1.762l0,2.824l-7.767,0c-4.942,0 -8.649,-1.583 -12.891,-1.583c-4.413,0 -7.767,1.938 -15.184,1.938c-5.292,0 -1.938,-0.879 -6,-0.879l0,-3.008c2.295,0 4.941,1.767 8.651,0.533c7.241,-2.295 6.182,-9.354 6.182,-20.656l0,-28.782l-57.911,0l0,26.838c0,10.77 -0.706,18.362 3.531,21.013c4.056,2.821 5.652,1.762 10.769,1.762l0,2.824l-7.947,0c-4.766,0 -8.471,-1.583 -12.709,-1.583c-4.418,0 -7.945,1.938 -15.361,1.938c-5.117,0 -1.943,-0.879 -5.825,-0.879l0,-3.008c2.295,0 4.946,1.767 8.653,0.533c7.059,-2.295 6.175,-9.354 6.175,-20.656l0,-56.146c0,-11.299 0.884,-18.536 -6.175,-20.654c-3.707,-1.236 -6.708,0.351 -8.833,0.351l0,-2.821c3.892,0 0.888,-1.059 6.005,-1.059c7.416,0 10.943,1.938 15.361,1.938c4.238,0 7.943,-1.412 12.709,-1.412l7.947,0l0,2.65c-5.117,0 -6.713,-0.883 -10.769,1.77c-4.237,2.646 -3.531,10.413 -3.531,21.179l0,20.48l57.911,0Z" style="fill:none;stroke:#fff;stroke-width:1.94px;"/><path d="M773.14,525.628l-36.543,-88.63l-2.12,0l-29.837,78.034c-4.939,13.241 -9.179,21.364 -12.533,22.596c-3.177,1.239 -4.944,1.063 -8.123,0.355l0,2.646c3.705,0.708 3.179,0.533 9.009,0c4.938,-0.528 4.232,-0.708 7.058,-0.708c2.651,0 2.651,1.416 10.063,1.241c5.121,-0.18 2.12,-0.18 6.175,-1.061l0,-2.826c-2.288,0.883 -6.879,1.592 -10.237,-0.346c-3.175,-1.95 -2.471,-7.417 2.124,-19.426l8.822,-23.129l30.192,0l8.653,20.658c3.885,10.413 7.234,16.768 4.413,20.305c-1.943,2.646 -6.358,3.179 -10.238,2.291l0,3.001c3.88,0.533 3.179,0.708 9.004,0.353c4.939,-0.524 5.467,-1.232 9.705,-1.232c4.413,0 5.298,1.587 12.713,1.412c5.119,-0.18 3.003,-0.18 6.886,-1.061l0,-2.826c0,0 -2.999,0.883 -5.119,0.353c-5.121,-0.882 -6.18,-2.291 -10.067,-12Zm-54.375,-35.492l13.241,-34.605l13.594,34.605l-26.835,0Z" style="fill:#fff;fill-rule:nonzero;"/><path d="M773.14,525.628l-36.543,-88.63l-2.12,0l-29.837,78.034c-4.939,13.241 -9.179,21.364 -12.533,22.596c-3.177,1.239 -4.944,1.063 -8.123,0.355l0,2.646c3.705,0.708 3.179,0.533 9.009,0c4.938,-0.528 4.232,-0.708 7.058,-0.708c2.651,0 2.651,1.416 10.063,1.241c5.121,-0.18 2.12,-0.18 6.175,-1.061l0,-2.826c-2.288,0.883 -6.879,1.592 -10.237,-0.346c-3.175,-1.95 -2.471,-7.417 2.124,-19.426l8.822,-23.129l30.192,0l8.653,20.658c3.885,10.413 7.234,16.768 4.413,20.305c-1.943,2.646 -6.358,3.179 -10.238,2.291l0,3.001c3.88,0.533 3.179,0.708 9.004,0.353c4.939,-0.524 5.467,-1.232 9.705,-1.232c4.413,0 5.298,1.587 12.713,1.412c5.119,-0.18 3.003,-0.18 6.886,-1.061l0,-2.826c0,0 -2.999,0.883 -5.119,0.353c-5.121,-0.882 -6.18,-2.291 -10.067,-12Zm-54.375,-35.492l13.241,-34.605l13.594,34.605l-26.835,0Z" style="fill:none;stroke:#fff;stroke-width:1.94px;"/><path d="M914.294,537.628c3.354,1.589 6.183,0.53 8.125,-0.353l0,2.826c-3.71,1.236 -0.175,0.881 -5.474,1.061c-7.414,0.175 -10.769,-1.945 -15.184,-1.945c-4.238,0 -7.942,0.884 -12.888,1.412c-5.825,0.533 -3.883,0.708 -7.588,0l0,-2.646c5.122,0.533 6.356,0.884 10.589,-1.762c4.24,-2.653 2.648,-10.248 1.945,-21.189l-5.65,-59.501l-33.546,80.51l-2.116,0.355l-34.96,-82.097l-2.824,55.254c-0.355,11.479 -1.587,25.251 4.233,27.376c3.534,1.229 6.713,0.699 8.833,0.346l0,2.826c-3.887,0.881 -1.587,0.881 -6.883,1.061c-7.242,0.175 -8.478,-1.241 -11.304,-1.241c-2.646,0 -3.705,0.18 -8.651,0.708c-5.825,0.533 -4.941,0.533 -8.828,0l0,-2.646c5.121,0.708 7.592,0.708 11.649,-2.471c2.831,-2.47 5.122,-8.655 5.83,-22.242l3.004,-51.384c0.53,-6.703 1.762,-14.826 -1.768,-18.888c-2.47,-2.999 -5.649,-2.12 -10.244,-1.587l0,-2.646c6.009,-1.061 7.596,-1.767 13.954,-1.767c10.766,0 12.358,6.884 15.717,15.71l26.653,64.262l27.897,-65.497c6.358,-16.42 13.767,-15.008 28.948,-13.241l0,3.004c-13.589,-1.945 -15.181,4.588 -14.295,14.65l6.18,61.084c1.059,10.425 2.999,18.542 8.646,20.658Z" style="fill:#fff;fill-rule:nonzero;"/><path d="M914.294,537.628c3.354,1.589 6.183,0.53 8.125,-0.353l0,2.826c-3.71,1.236 -0.175,0.881 -5.474,1.061c-7.414,0.175 -10.769,-1.945 -15.184,-1.945c-4.238,0 -7.942,0.884 -12.888,1.412c-5.825,0.533 -3.883,0.708 -7.588,0l0,-2.646c5.122,0.533 6.356,0.884 10.589,-1.762c4.24,-2.653 2.648,-10.248 1.945,-21.189l-5.65,-59.501l-33.546,80.51l-2.116,0.355l-34.96,-82.097l-2.824,55.254c-0.355,11.479 -1.587,25.251 4.233,27.376c3.534,1.229 6.713,0.699 8.833,0.346l0,2.826c-3.887,0.881 -1.587,0.881 -6.883,1.061c-7.242,0.175 -8.478,-1.241 -11.304,-1.241c-2.646,0 -3.705,0.18 -8.651,0.708c-5.825,0.533 -4.941,0.533 -8.828,0l0,-2.646c5.121,0.708 7.592,0.708 11.649,-2.471c2.831,-2.47 5.122,-8.655 5.83,-22.242l3.004,-51.384c0.53,-6.703 1.762,-14.826 -1.768,-18.888c-2.47,-2.999 -5.649,-2.12 -10.244,-1.587l0,-2.646c6.009,-1.061 7.596,-1.767 13.954,-1.767c10.766,0 12.358,6.884 15.717,15.71l26.653,64.262l27.897,-65.497c6.358,-16.42 13.767,-15.008 28.948,-13.241l0,3.004c-13.589,-1.945 -15.181,4.588 -14.295,14.65l6.18,61.084c1.059,10.425 2.999,18.542 8.646,20.658Z" style="fill:none;stroke:#fff;stroke-width:1.94px;"/><path d="M447.219,595.831c-4.659,6.218 -4.879,7.208 -1.551,8.11c2.217,0.635 3.437,0.363 5.322,0.088l0,1.537c-2.331,0.36 -2.217,0.448 -5.434,0.448c-1.887,0 -3.882,-0.628 -5.547,-0.628c-1.772,0 -2.329,0.443 -5.434,0.443c-1.218,0 -2.44,0.185 -4.989,0l0,-1.433c3.106,0.268 4.323,0.355 6.545,-1.265c2.106,-1.623 4.432,-3.608 8.205,-8.291l12.534,-15.776l4.436,-5.948l3.992,-5.038c3.771,-5.052 10.425,-12.168 5.879,-13.338c-2.331,-0.635 -3.217,-0.093 -4.771,-0.093l0,-1.532c1.888,-0.273 3.103,-0.453 4.66,-0.453c3.657,0 4.657,0.633 6.319,0.633c1.777,0 2.331,-0.54 5.437,-0.54c2.66,0 2.883,0 5.102,0.36l0,1.44c-3.437,-0.63 -6.213,0 -8.317,1.622c-2.222,1.625 -7.321,8.023 -11.202,12.891l-5.104,6.398l-4.657,5.851l-11.425,14.514Z" style="fill:#fff;fill-rule:nonzero;"/><path d="M447.219,595.831c-4.659,6.218 -4.879,7.208 -1.551,8.11c2.217,0.635 3.437,0.363 5.322,0.088l0,1.537c-2.331,0.36 -2.217,0.448 -5.434,0.448c-1.887,0 -3.882,-0.628 -5.547,-0.628c-1.772,0 -2.329,0.443 -5.434,0.443c-1.218,0 -2.44,0.185 -4.989,0l0,-1.433c3.106,0.268 4.323,0.355 6.545,-1.265c2.106,-1.623 4.432,-3.608 8.205,-8.291l12.534,-15.776l4.436,-5.948l3.992,-5.038c3.771,-5.052 10.425,-12.168 5.879,-13.338c-2.331,-0.635 -3.217,-0.093 -4.771,-0.093l0,-1.532c1.888,-0.273 3.103,-0.453 4.66,-0.453c3.657,0 4.657,0.633 6.319,0.633c1.777,0 2.331,-0.54 5.437,-0.54c2.66,0 2.883,0 5.102,0.36l0,1.44c-3.437,-0.63 -6.213,0 -8.317,1.622c-2.222,1.625 -7.321,8.023 -11.202,12.891l-5.104,6.398l-4.657,5.851l-11.425,14.514Z" style="fill:none;stroke:#fff;stroke-width:2.31px;"/><path d="M189.065,419.325c2.83,0 10.192,-0.519 16.138,0.772c13.594,2.326 20.674,12.403 24.071,24.029c2.549,9.041 1.983,24.535 -6.23,33.06c-13.31,14.208 -38.795,12.401 -57.764,12.401l0,-44.682c0,-16.283 0,-18.863 7.644,-22.996c3.963,-2.326 7.928,-2.584 16.141,-2.584Zm-13.877,-5.423c-5.945,0.773 -11.043,1.554 -20.106,1.036c-7.08,0 -12.741,-2.073 -24.351,-2.073c-8.499,0 -1.776,1.296 -8.006,1.296l-9.338,6.087c3.681,0 15.644,-4.278 21.592,-2.475c11.327,3.359 9.91,13.691 9.91,30.225l0,117.275c0,16.534 1.417,26.867 -9.91,30.226c-5.948,1.802 -13.31,-0.777 -16.992,-0.777l0,4.389c6.23,0 4.245,1.296 12.744,1.296c11.61,0 16.989,-1.81 24.069,-1.81c9.061,0 17.555,1.547 17.555,1.547c26.618,1.807 60.6,3.88 84.39,-23.763c12.175,-13.689 13.589,-32.033 9.06,-45.464c-9.06,-24.54 -31.715,-32.805 -54.088,-38.232c15.008,-5.427 32.281,-12.398 39.362,-29.446c4.247,-10.072 2.267,-26.348 -4.814,-34.617c-16.991,-20.921 -59.467,-15.757 -71.077,-14.72Zm-9.908,176.947l0,-94.805c11.891,0 51.819,-1.807 69.658,20.926c9.913,12.914 11.896,33.577 6.23,47.785c-4.814,13.435 -15.009,24.284 -29.451,28.42c-11.609,3.354 -25.77,3.101 -46.437,-2.326Z" style="fill:#fff;fill-rule:nonzero;"/></g><defs><linearGradient id="_Linear1" x1="0" y1="0" x2="1" y2="0" gradientUnits="userSpaceOnUse" gradientTransform="matrix(493.951,-588.668,588.668,493.951,265.173,829.594)"><stop offset="0" style="stop-color:#00533e;stop-opacity:1"/><stop offset="0.3" style="stop-color:#639181;stop-opacity:1"/><stop offset="0.5" style="stop-color:#a8c2b9;stop-opacity:1"/><stop offset="0.7" style="stop-color:#608e7f;stop-opacity:1"/><stop offset="1" style="stop-color:#00533e;stop-opacity:1"/></linearGradient><linearGradient id="_Linear2" x1="0" y1="0" x2="1" y2="0" gradientUnits="userSpaceOnUse" gradientTransform="matrix(-1.81779e-05,415.86,-415.86,-1.81779e-05,512.074,327.419)"><stop offset="0" style="stop-color:#b66d62;stop-opacity:1"/><stop offset="1" style="stop-color:#933530;stop-opacity:1"/></linearGradient><linearGradient id="_Linear5" x1="0" y1="0" x2="1" y2="0" gradientUnits="userSpaceOnUse" gradientTransform="matrix(-495.713,-4.33365e-05,4.33365e-05,-495.713,926.593,582.414)"><stop offset="0" style="stop-color:#fff;stop-opacity:1"/><stop offset="0.6" style="stop-color:#679485;stop-opacity:1"/><stop offset="1" style="stop-color:#0f604c;stop-opacity:1"/></linearGradient><linearGradient id="_Linear7" x1="0" y1="0" x2="1" y2="0" gradientUnits="userSpaceOnUse" gradientTransform="matrix(351.046,-294.563,294.563,351.046,142.504,649.717)"><stop offset="0" style="stop-color:#933530;stop-opacity:1"/><stop offset="0.2" style="stop-color:#b66f63;stop-opacity:1"/><stop offset="0.4" style="stop-color:#c78d81;stop-opacity:1"/><stop offset="0.5" style="stop-color:#c99084;stop-opacity:1"/><stop offset="1" style="stop-color:#933530;stop-opacity:1"/></linearGradient><linearGradient id="_Linear8" x1="0" y1="0" x2="1" y2="0" gradientUnits="userSpaceOnUse" gradientTransform="matrix(127.568,-107.042,107.042,127.568,555.116,547.036)"><stop offset="0" style="stop-color:#933530;stop-opacity:1"/><stop offset="0.2" style="stop-color:#b66f63;stop-opacity:1"/><stop offset="0.4" style="stop-color:#c78d81;stop-opacity:1"/><stop offset="0.5" style="stop-color:#c99084;stop-opacity:1"/><stop offset="1" style="stop-color:#933530;stop-opacity:1"/></linearGradient><linearGradient id="_Linear9" x1="0" y1="0" x2="1" y2="0" gradientUnits="userSpaceOnUse" gradientTransform="matrix(92.3642,-77.5028,77.5028,92.3642,679.917,556.879)"><stop offset="0" style="stop-color:#933530;stop-opacity:1"/><stop offset="0.2" style="stop-color:#b66f63;stop-opacity:1"/><stop offset="0.4" style="stop-color:#c78d81;stop-opacity:1"/><stop offset="0.5" style="stop-color:#c99084;stop-opacity:1"/><stop offset="1" style="stop-color:#933530;stop-opacity:1"/></linearGradient><linearGradient id="_Linear10" x1="0" y1="0" x2="1" y2="0" gradientUnits="userSpaceOnUse" gradientTransform="matrix(132.541,-111.215,111.215,132.541,785.054,553.375)"><stop offset="0" style="stop-color:#933530;stop-opacity:1"/><stop offset="0.2" style="stop-color:#b66f63;stop-opacity:1"/><stop offset="0.4" style="stop-color:#c78d81;stop-opacity:1"/><stop offset="0.5" style="stop-color:#c99084;stop-opacity:1"/><stop offset="1" style="stop-color:#933530;stop-opacity:1"/></linearGradient></defs></svg>